SplineFontDB: 3.2
FontName: MFEKSansRounded-Regular
FullName: MFEK Sans Rounded Regular
FamilyName: MFEK Sans Rounded
Weight: Regular
Copyright: 
Version: 0.1
ItalicAngle: -13
UnderlinePosition: -200
UnderlineWidth: 100
Ascent: 1600
Descent: 400
InvalidEm: 0
LayerCount: 2
Layer: 0 0 "Back" 1
Layer: 1 0 "Fore" 0
XUID: [1021 31 -699969567 16487490]
FSType: 0
OS2Version: 0
OS2_WeightWidthSlopeOnly: 0
OS2_UseTypoMetrics: 1
CreationTime: 1460762150
ModificationTime: 1696011287
PfmFamily: 33
TTFWeight: 400
TTFWidth: 5
LineGap: 0
VLineGap: 0
OS2TypoAscent: 2500
OS2TypoAOffset: 0
OS2TypoDescent: -850
OS2TypoDOffset: 0
OS2TypoLinegap: 0
OS2WinAscent: 2500
OS2WinAOffset: 0
OS2WinDescent: 850
OS2WinDOffset: 0
HheadAscent: 2500
HheadAOffset: 0
HheadDescent: -850
HheadDOffset: 0
OS2CapHeight: 1500
OS2XHeight: 1040
OS2FamilyClass: 2053
OS2Vendor: 'it* '
OS2UnicodeRanges: 00000001.00000000.00000000.00000000
Lookup: 258 0 0 "kerning yeah boi" { "say cheese" [300,0,4] } ['kern' ('DFLT' <'dflt' > 'grek' <'dflt' > 'latn' <'dflt' > ) ]
MarkAttachClasses: 1
DEI: 91125
KernClass2: 30 23 "say cheese"
 73 A Agrave Aacute Acircumflex Atilde Adieresis Aring Amacron Abreve Aogonek
 96 D O Ograve Oacute Ocircumflex Otilde Odieresis Oslash Dcaron Dcroat Omacron Obreve Ohungarumlaut
 81 E AE Egrave Eacute Ecircumflex Edieresis Emacron Ebreve Edotaccent Eogonek Ecaron
 1 F
 39 G Gcircumflex Gbreve Gdotaccent uni0122
 104 J U Ugrave Uacute Ucircumflex Udieresis IJ Jcircumflex Utilde Umacron Ubreve Uring Uhungarumlaut Uogonek
 11 K X uni0136
 23 L Lacute uni013B Lslash
 1 P
 1 Q
 23 R Racute uni0156 Rcaron
 36 S Sacute Scircumflex Scedilla Scaron
 21 T uni0162 Tcaron Tbar
 1 V
 53 W Wcircumflex Wgrave Wacute Wdieresis uni1E86 uni1E88
 30 Y Ycircumflex Ydieresis Ygrave
 26 Z Zacute Zdotaccent Zcaron
 73 a agrave aacute acircumflex atilde adieresis aring amacron abreve aogonek

StartChar: ampersand
Encoding: 38 38 0
Width: 1280
VWidth: 1920
Flags: HMW
LayerCount: 2
Fore
SplineSet
894 80 m 6
 607 734 l 2
 526 919 457 1030 488 1163 c 0
 520 1303 649 1435 856 1435 c 0
 1043 1435 1142 1353 1113 1183 c 1
 1074 1015 948 878 696 776 c 0
 416 663 252 592 219 448 c 0
 205 389 209 341 231 286 c 2
 259 213 l 2
 286 145 346 105 431 105 c 0
 623 105 841 324 994 570 c 0
 1038 640 1071 708 1118 708 c 2
 1123 708 l 2
 1180 708 1180 640 1136 567 c 0
 921 213 671 -35 403 -35 c 0
 267 -35 148 22 106 119 c 2
 72 199 l 2
 37 279 27 352 49 448 c 0
 97 657 339 767 606 862 c 0
 781 924 944 1032 974 1163 c 0
 992 1243 942 1300 845 1300 c 0
 748 1300 677 1242 656 1153 c 0
 629 1034 685 973 729 876 c 2
 1072 127 l 2
 1106 52 1070 -30 1013 -30 c 2
 1008 -30 l 6
 951 -30 927 4 894 80 c 6
EndSplineSet
EndChar

StartChar: period
Encoding: 46 46 1
Width: 540
VWidth: 1920
Flags: HMW
LayerCount: 2
Fore
SplineSet
179 -30 m 6
 169 -30 l 6
 91.7412109375 -30 39 32.7412109375 39 100 c 6
 39 110 l 6
 39 177.258789062 91.7412109375 240 169 240 c 6
 179 240 l 6
 256.258789062 240 309 177.258789062 309 110 c 6
 309 100 l 6
 309 32.7412109375 256.258789062 -30 179 -30 c 6
EndSplineSet
EndChar

StartChar: zero
Encoding: 48 48 2
Width: 1150
VWidth: 1920
Flags: HMW
LayerCount: 2
Fore
SplineSet
93 488 m 258
 191 913 l 258
 266 1239 484 1435 786 1435 c 256
 1088 1435 1216 1239 1141 913 c 258
 1043 488 l 258
 968 162 748 -35 447 -35 c 256
 146 -35 18 162 93 488 c 258
287 508 m 258
 230 260 295 105 479 105 c 256
 663 105 800 260 857 508 c 258
 946 893 l 258
 1003 1141 938 1295 754 1295 c 256
 570 1295 433 1141 376 893 c 258
 287 508 l 258
EndSplineSet
EndChar

StartChar: one
Encoding: 49 49 3
Width: 600
VWidth: 1920
Flags: HMW
LayerCount: 2
Fore
SplineSet
443 1373 m 4
 464 1386 480 1391 506 1415 c 4
 521 1429 540 1450 567 1450 c 6
 571 1450 l 6
 598 1450 604 1427 598 1400 c 6
 293 80 l 6
 275 3 225 -30 178 -30 c 6
 168 -30 l 6
 121 -30 85 3 103 80 c 6
 381 1284 l 6
 394 1341 417 1357 443 1373 c 4
EndSplineSet
EndChar

StartChar: two
Encoding: 50 50 4
Width: 1080
VWidth: 1920
Flags: HMW
LayerCount: 2
Fore
SplineSet
17 160 m 262
 113 574 839 756 903 1033 c 262
 914 1078 l 262
 939 1188 883 1285 726 1285 c 260
 556 1285 436 1175 396 1002 c 262
 392 982 l 6
 374 905 328 872 281 872 c 6
 271 872 l 6
 224 872 194 905 212 982 c 6
 216 1002 l 262
 279 1276 493 1435 770 1435 c 260
 1017 1435 1146 1303 1093 1073 c 262
 1082 1028 l 262
 991 632 286 501 212 180 c 262
 209 170 l 261
 809 170 l 6
 886 170 912 137 901 90 c 6
 898 80 l 6
 887 33 847 0 770 0 c 6
 160 0 l 6
 33 0 -9 48 16 155 c 6
 17 160 l 262
EndSplineSet
EndChar

StartChar: three
Encoding: 51 51 5
Width: 1100
VWidth: 1920
Flags: HMW
LayerCount: 2
Fore
SplineSet
151 437 m 6
 161 437 l 6
 208 437 246 414 228 337 c 6
 225 327 l 6
 197 207 288 115 447 115 c 4
 614 115 756 222 786 352 c 6
 808 447 l 6
 838 577 739 660 562 660 c 6
 542 660 l 6
 475 660 448 683 459 730 c 6
 461 740 l 6
 472 787 509 810 576 810 c 6
 577 810 l 6
 744 810 858 903 886 1023 c 6
 901 1088 l 6
 926 1198 883 1285 716 1285 c 4
 566 1285 449 1185 418 1052 c 6
 413 1032 l 6
 395 955 350 922 303 922 c 6
 293 922 l 6
 246 922 215 955 233 1032 c 6
 238 1052 l 6
 292 1286 508 1435 755 1435 c 4
 1002 1435 1148 1313 1095 1083 c 6
 1089 1058 l 6
 1031 808 813 720 556 720 c 5
 588 770 l 5
 845 770 1050 672 992 422 c 6
 975 347 l 6
 920 107 699 -35 402 -35 c 4
 150 -35 -18 99 35 327 c 6
 38 337 l 6
 56 414 104 437 151 437 c 6
EndSplineSet
EndChar

StartChar: four
Encoding: 52 52 6
Width: 1045
VWidth: 1920
Flags: HMW
LayerCount: 2
Fore
SplineSet
1015 410 m 6
 1012 400 l 6
 1001 353 963 330 886 330 c 6
 776 330 l 261
 718 80 l 6
 700 3 650 -30 603 -30 c 6
 593 -30 l 6
 546 -30 510 3 528 80 c 6
 586 330 l 261
 86 330 l 6
 9 330 -16 363 -5 410 c 6
 -5 412 l 6
 4 449 33 486 94 550 c 6
 876 1377 l 6
 906 1408 931 1420 958 1420 c 6
 968 1420 l 6
 1005 1420 1020 1387 1009 1340 c 6
 811 480 l 261
 921 480 l 6
 998 480 1026 457 1015 410 c 6
631 480 m 261
 770 1081 l 261
 196 480 l 261
 631 480 l 261
EndSplineSet
EndChar

StartChar: five
Encoding: 53 53 7
Width: 1100
VWidth: 1920
Flags: HMW
LayerCount: 2
Fore
SplineSet
152 398 m 6
 162 398 l 6
 219 398 228 361 237 289 c 4
 248 201 292 105 439 105 c 4
 588 105 737 205 782 398 c 6
 811 523 l 6
 857 723 765 805 631 805 c 4
 545 805 444 761 386 693 c 4
 342 641 316 623 259 623 c 6
 249 623 l 6
 192 623 165 666 194 743 c 6
 384 1240 l 6
 431 1364 477 1400 604 1400 c 6
 1064 1400 l 6
 1131 1400 1162 1387 1153 1350 c 6
 1152 1345 l 6
 1136 1275 1060 1250 910 1250 c 6
 555 1250 l 5
 344 745 l 5
 321 745 l 5
 404 868 550 955 710 955 c 4
 910 955 1063 790 994 493 c 6
 979 428 l 6
 910 131 677 -35 407 -35 c 4
 173 -35 55 101 67 288 c 4
 72 364 115 398 152 398 c 6
EndSplineSet
EndChar

StartChar: six
Encoding: 54 54 8
Width: 1229
VWidth: 1920
Flags: HMW
LayerCount: 2
Fore
SplineSet
681 740 m 260
 531 740 346 675 304 492 c 262
 287 422 l 261
 251 522 l 261
 312 786 548 890 755 890 c 260
 1012 890 1168 731 1105 457 c 262
 1093 407 l 262
 1029 129 793 -35 501 -35 c 260
 124 -35 44 167 127 527 c 262
 200 843 l 262
 288 1223 504 1435 831 1435 c 260
 1138 1435 1231 1268 1198 1124 c 262
 1198 1122 l 6
 1180 1045 1135 1012 1088 1012 c 6
 1078 1012 l 6
 1031 1012 1010 1045 1023 1102 c 6
 1026 1114 l 262
 1045 1197 987 1285 817 1285 c 260
 590 1285 452 1138 383 838 c 262
 287 422 l 262
 243 232 339 115 526 115 c 260
 725 115 863 237 905 417 c 262
 915 457 l 262
 957 640 871 740 681 740 c 260
EndSplineSet
EndChar

StartChar: seven
Encoding: 55 55 9
Width: 1015
VWidth: 1920
Flags: HMW
LayerCount: 2
Fore
SplineSet
1128 1260 m 6
 367 80 l 6
 324 13 270 -30 223 -30 c 6
 213 -30 l 6
 156 -30 123 29 179 110 c 6
 951 1240 l 261
 321 1240 l 6
 244 1240 216 1263 227 1310 c 6
 232 1330 l 6
 243 1377 281 1400 358 1400 c 6
 1058 1400 l 6
 1165 1400 1187 1352 1128 1260 c 6
EndSplineSet
EndChar

StartChar: eight
Encoding: 56 56 10
Width: 1182
VWidth: 1920
Flags: HMW
LayerCount: 2
Fore
SplineSet
496 110 m 260
 676 110 802 196 836 342 c 262
 856 427 l 262
 890 574 804 660 623 660 c 260
 442 660 318 574 284 427 c 262
 264 342 l 262
 230 196 316 110 496 110 c 260
658 810 m 260
 808 810 912 887 943 1023 c 262
 958 1088 l 262
 987 1215 917 1290 769 1290 c 260
 621 1290 515 1215 486 1088 c 262
 471 1023 l 262
 440 887 508 810 658 810 c 260
677 760 m 261
 957 760 1091 624 1038 392 c 262
 1027 347 l 262
 970 100 771 -35 463 -35 c 260
 155 -35 18 100 75 347 c 262
 86 392 l 262
 139 624 335 760 615 760 c 261
 608 720 l 261
 343 725 238 837 289 1058 c 262
 295 1083 l 262
 346 1304 534 1435 802 1435 c 260
 1070 1435 1198 1304 1147 1083 c 262
 1141 1058 l 262
 1090 837 933 725 666 720 c 261
 677 760 l 261
EndSplineSet
EndChar

StartChar: nine
Encoding: 57 57 11
Width: 1169
VWidth: 1920
Flags: HMW
LayerCount: 2
Fore
SplineSet
601 660 m 260
 751 660 913 755 958 948 c 262
 974 1018 l 261
 1011 918 l 261
 948 644 734 510 527 510 c 260
 290 510 145 669 208 943 c 262
 219 993 l 262
 283 1271 509 1435 781 1435 c 260
 1138 1435 1211 1243 1135 913 c 262
 1053 557 l 262
 965 177 738 -35 432 -35 c 260
 125 -35 32 132 65 276 c 262
 65 278 l 6
 83 355 129 388 176 388 c 6
 186 388 l 6
 233 388 253 355 240 298 c 6
 237 286 l 262
 218 203 277 115 447 115 c 260
 653 115 800 262 869 562 c 262
 974 1018 l 262
 1009 1168 924 1285 757 1285 c 260
 578 1285 449 1163 407 983 c 262
 398 943 l 262
 356 760 431 660 601 660 c 260
EndSplineSet
EndChar

StartChar: A
Encoding: 65 65 12
Width: 1238
VWidth: 1872
Flags: HMW
AnchorPoint: "ogonek" 1010 0 basechar 0
AnchorPoint: "bottom" 505 0 basechar 0
AnchorPoint: "top" 827 1400 basechar 0
LayerCount: 2
Fore
SplineSet
277 566 m 1
 886 566 l 1
 886 420 l 1
 277 420 l 1
 277 566 l 1
777 1227 m 1
 133 55 l 2
 111.790646486 16.4016113065 72.486328125 -35 25 -35 c 2
 19 -35 l 2
 -37.40234375 -35 -66.6524297109 25.7959192594 -36 80 c 2
 659 1309 l 2
 688.346742201 1360.89517434 732 1400 809 1400 c 2
 816 1400 l 2
 903 1400 929.408845142 1361.48729386 935 1311 c 2
 1069 101 l 2
 1078.21550848 17.7853338898 1049.875 -35 990 -35 c 2
 984 -35 l 2
 923.797851562 -35 893.632003557 -0.262884275777 888 59 c 2
 777 1227 l 1
EndSplineSet
EndChar

StartChar: B
Encoding: 66 66 13
Width: 1240
VWidth: 1872
Flags: HMW
AnchorPoint: "top" 827 1400 basechar 0
AnchorPoint: "bottom" 505 0 basechar 0
LayerCount: 2
Fore
SplineSet
414 788 m 1
 730 788 l 2
 891 788 991 859 1019 980 c 2
 1040 1071 l 2
 1068 1192 998 1253 837 1253 c 2
 521 1253 l 1
 414 788 l 1
741 749 m 1
 990 749 1189 653 1132 406 c 2
 1117 342 l 2
 1053 66 818 0 568 0 c 2
 155 0 l 2
 68.5680663899 0 57.4299555284 54.5298072899 73 122 c 2
 349 1318 l 2
 358.814578726 1360.52984115 386.183000794 1400 458 1400 c 6
 871 1400 l 2
 1121 1400 1293 1315 1236 1068 c 2
 1227 1033 l 2
 1170 786 959 700 710 700 c 1
 741 749 l 1
715 641 m 2
 380 641 l 1
 266 147 l 1
 601 147 l 2
 772 147 892 217 920 338 c 2
 943 439 l 2
 971 560 887 641 715 641 c 2
EndSplineSet
EndChar

StartChar: C
Encoding: 67 67 14
Width: 1340
VWidth: 1872
Flags: HMW
AnchorPoint: "top" 907 1400 basechar 0
AnchorPoint: "bottom" 565 0 basechar 0
LayerCount: 2
Fore
SplineSet
1204 435 m 0
 1193.76020245 403.075925289 1179.18413656 374.895282013 1145 315 c 0
 1028 110 853 -34 574 -34 c 0
 198 -34 31 232 117 605 c 2
 161 796 l 2
 247 1169 488 1434 863 1434 c 0
 1137 1434 1310 1312 1310 1134 c 0
 1310 1082 1304.87114948 1023.50364379 1279 964 c 0
 1259 918 1228 878 1181 878 c 2
 1175 878 l 2
 1128 878 1101.67699166 913.573065514 1128 983 c 0
 1208 1194 1071 1296 861 1296 c 0
 593 1296 423 1081 359 806 c 2
 310 595 l 2
 249 330 319 104 586 104 c 0
 815 104 973 263 1041 437 c 0
 1064.04986497 495.980536831 1105 543 1142 543 c 2
 1144 543 l 2
 1206.01269531 543 1221 488 1204 435 c 0
EndSplineSet
EndChar

StartChar: D
Encoding: 68 68 15
Width: 1336
VWidth: 1872
Flags: HMW
AnchorPoint: "top" 857 1400 basechar 0
AnchorPoint: "bottom" 505 0 basechar 0
LayerCount: 2
Fore
SplineSet
591 0 m 2
 155 0 l 2
 62.5129774407 0 56.2293504204 50.4106436375 70 110 c 2
 345 1300 l 2
 360.308624345 1366.24459262 389.394122864 1400 478 1400 c 2
 854 1400 l 2
 1161 1400 1390 1174 1303 795 c 2
 1259 606 l 2
 1171 226 937 0 591 0 c 2
557 147 m 2
 803 147 993 302 1061 596 c 2
 1109 804 l 2
 1177 1097 1058 1253 812 1253 c 2
 521 1253 l 1
 266 147 l 1
 557 147 l 2
EndSplineSet
EndChar

StartChar: E
Encoding: 69 69 16
Width: 1238
VWidth: 1872
Flags: HMW
AnchorPoint: "ogonek" 980 0 basechar 0
AnchorPoint: "top" 887 1400 basechar 0
AnchorPoint: "bottom" 565 0 basechar 0
LayerCount: 2
Fore
SplineSet
414 788 m 1
 852 788 l 2
 909 788 945 765 945 718 c 2
 945 711 l 2
 945 654 895 641 828 641 c 2
 380 641 l 1
 266 147 l 1
 995 147 l 2
 1032 147 1058 124 1058 77 c 2
 1058 70 l 2
 1058 33 1018 0 981 0 c 2
 155 0 l 2
 68 0 50.7930458802 26.9809309108 70 110 c 2
 343 1290 l 2
 362.20695412 1373.01906909 391 1400 478 1400 c 2
 1235 1400 l 6
 1272 1400 1328 1377 1328 1330 c 6
 1328 1323 l 6
 1328 1276 1288 1253 1221 1253 c 6
 521 1253 l 1
 414 788 l 1
EndSplineSet
EndChar

StartChar: F
Encoding: 70 70 17
Width: 1131
VWidth: 1872
Flags: HMW
AnchorPoint: "top" 847 1400 basechar 0
AnchorPoint: "bottom" 525 0 basechar 0
LayerCount: 2
Fore
SplineSet
414 788 m 1
 787 788 l 2
 835 788 860 766 860 718 c 2
 860 711 l 2
 860 663 831 641 783 641 c 2
 380 641 l 1
 246 60 l 2
 235.387556713 13.9863466445 200 -30 142 -30 c 2
 138 -30 l 2
 70 -30 48.3796051738 13.9898204599 59 60 c 2
 366 1390 l 2
 368 1397 371 1400 378 1400 c 2
 1196 1400 l 2
 1243 1400 1284 1387 1284 1330 c 2
 1284 1323 l 2
 1284 1266 1239 1253 1202 1253 c 2
 521 1253 l 1
 414 788 l 1
EndSplineSet
EndChar

StartChar: G
Encoding: 71 71 18
Width: 1340
VWidth: 1872
Flags: HMW
AnchorPoint: "top" 897 1400 basechar 0
AnchorPoint: "bottom" 575 0 basechar 0
LayerCount: 2
Fore
SplineSet
719 637 m 2
 719 639 l 2
 719 696 755 709 812 709 c 2
 1163 709 l 2
 1230 709 1261.78847454 663.047143401 1247 599 c 2
 1125 70 l 2
 1110.22753753 5.94563406565 1090 -30 1053 -30 c 2
 1051 -30 l 2
 1024 -30 1001.68349176 -6.99005830171 1001 40 c 2
 997 315 l 1
 1154 621 l 1
 1043 227 873 -34 554 -34 c 0
 188 -34 30 230 117 606 c 2
 161 795 l 2
 247 1169 477 1434 853 1434 c 0
 1130 1434 1268 1320 1302 1166 c 0
 1316 1104 1314.37876787 1058.1736522 1310 1018 c 0
 1303.60342547 959.313682734 1264 928 1227 928 c 2
 1220 928 l 2
 1173 928 1148.01936867 959.269836976 1154 1018 c 0
 1170.18399305 1176.92779488 1061 1297 851 1297 c 0
 603 1297 427 1098 359 804 c 2
 311 596 l 2
 249 328 329 103 596 103 c 0
 805 103 985 267 1090 616 c 1
 1091 567 l 1
 807 567 l 2
 750 567 719 580 719 637 c 2
EndSplineSet
EndChar

StartChar: H
Encoding: 72 72 19
Width: 1336
VWidth: 1872
Flags: HMW
AnchorPoint: "top" 857 1400 basechar 0
AnchorPoint: "bottom" 535 0 basechar 0
LayerCount: 2
Fore
SplineSet
1304 1430 m 6
 1314 1430 l 6
 1371 1430 1390 1387 1375 1320 c 6
 1088 80 l 6
 1073 13 1034 -30 977 -30 c 6
 967 -30 l 6
 910 -30 887 13 902 80 c 6
 1032 640 l 261
 360 640 l 261
 230 80 l 6
 215 13 174 -30 117 -30 c 6
 107 -30 l 6
 50 -30 29 13 44 80 c 6
 331 1320 l 22
 346 1387 387 1430 444 1430 c 14
 454 1430 l 22
 511 1430 532 1387 517 1320 c 14
 394 790 l 261
 1066 790 l 261
 1189 1320 l 6
 1204 1387 1247 1430 1304 1430 c 6
EndSplineSet
EndChar

StartChar: I
Encoding: 73 73 20
Width: 536
VWidth: 1872
Flags: HMW
AnchorPoint: "ogonek" 160 0 basechar 0
AnchorPoint: "top" 482 1400 basechar 0
AnchorPoint: "bottom" 160 0 basechar 0
LayerCount: 2
Fore
SplineSet
473 1430 m 14
 483 1430 l 22
 530 1430 564 1397 546 1320 c 10
 259 80 l 18
 241 3 193 -30 146 -30 c 10
 136 -30 l 18
 89 -30 55 3 73 80 c 10
 360 1320 l 18
 378 1397 426 1430 473 1430 c 14
EndSplineSet
EndChar

StartChar: J
Encoding: 74 74 21
Width: 923
VWidth: 1872
Flags: HMW
AnchorPoint: "top" 912 1400 basechar 0
AnchorPoint: "bottom" 290 0 basechar 0
LayerCount: 2
Fore
SplineSet
866 1430 m 2
 872 1430 l 2
 939 1430 968.1484375 1383.04589844 949 1300 c 6
 770 525 l 2
 683 148 537 -34 263 -34 c 0
 26 -34 -40.6396611324 171.007216798 90 466 c 2
 148 596 l 2
 169.431640625 644.39453125 187 693 244 693 c 2
 248 693 l 2
 305 693 337.075195312 647.7109375 315 600 c 2
 258 476 l 2
 160.50535812 265.285774002 170 122 287 122 c 0
 393 122 508 241 567 495 c 2
 753 1300 l 2
 772.15625 1383.04296875 799 1430 866 1430 c 2
EndSplineSet
EndChar

StartChar: K
Encoding: 75 75 22
Width: 1239
VWidth: 1872
Flags: HMW
AnchorPoint: "top" 827 1400 basechar 0
AnchorPoint: "bottom" 505 0 basechar 0
LayerCount: 2
Fore
SplineSet
444 1430 m 14
 454 1430 l 22
 501 1430 535 1397 517 1320 c 14
 230 80 l 22
 212 3 164 -30 117 -30 c 14
 107 -30 l 22
 60 -30 26 3 44 80 c 14
 331 1320 l 22
 349 1397 397 1430 444 1430 c 14
544 816 m 261
 726 849 l 261
 1049 116 l 262
 1082.57273331 39.8117228631 1055 -30 978 -30 c 6
 968 -30 l 6
 931 -30 895 1 873 50 c 262
 544 816 l 261
1144 1370 m 262
 1193 1410 1228 1430 1263 1430 c 6
 1267 1430 l 6
 1330 1430 1363 1356 1281 1290 c 262
 689 795 l 5
 629 748 l 5
 245 432 l 261
 215 568 l 261
 1144 1370 l 262
EndSplineSet
EndChar

StartChar: L
Encoding: 76 76 23
Width: 1031
VWidth: 1872
Flags: HMW
AnchorPoint: "top" 467 1400 basechar 0
AnchorPoint: "bottom" 505 0 basechar 0
LayerCount: 2
Fore
SplineSet
446 1430 m 6
 456 1430 l 6
 503 1430 534 1397 514 1310 c 6
 247 147 l 285
 811 147 l 6
 888 147 903 117 894 80 c 6
 892 70 l 6
 883 33 853 0 776 0 c 6
 156 0 l 6
 69 0 36 43 56 130 c 6
 328 1310 l 6
 348 1397 399 1430 446 1430 c 6
EndSplineSet
EndChar

StartChar: M
Encoding: 77 77 24
Width: 1551
VWidth: 1872
Flags: HMW
AnchorPoint: "top" 1007 1400 basechar 0
AnchorPoint: "bottom" 685 0 basechar 0
LayerCount: 2
Fore
SplineSet
454 1216 m 261
 194 90 l 6
 176 13 146 -30 99 -30 c 6
 89 -30 l 6
 42 -30 29 13 47 90 c 6
 326 1300 l 6
 341 1367 405 1410 462 1410 c 6
 497 1410 l 6
 564 1410 586 1387 597 1310 c 6
 731 323 l 261
 1299 1290 l 6
 1361 1394 1402 1415 1469 1415 c 6
 1479 1415 l 6
 1566 1415 1603.23287671 1366.71232877 1590 1310 c 6
 1303 80 l 6
 1288 13 1248 -30 1201 -30 c 6
 1191 -30 l 6
 1144 -30 1121 13 1136 80 c 6
 1388 1166 l 261
 731 60 l 6
 705 18 678 9 661 9 c 6
 659 9 l 6
 645 9 613 18 607 60 c 6
 454 1216 l 261
EndSplineSet
EndChar

StartChar: N
Encoding: 78 78 25
Width: 1336
VWidth: 1872
Flags: HMW
AnchorPoint: "top" 897 1400 basechar 0
AnchorPoint: "bottom" 565 0 basechar 0
LayerCount: 2
Fore
SplineSet
1310 1430 m 6
 1320 1430 l 6
 1367 1430 1392.1873257 1396.95601242 1379 1340 c 6
 1100 135 l 6
 1075.92657396 31.0269592239 1060 -10 1038 -10 c 6
 1034 -10 l 6
 1017 -10 987.715119756 26.3035946175 953 101 c 6
 444 1179 l 5
 464 1179 l 261
 210 80 l 6
 195 13 156 -30 109 -30 c 6
 99 -30 l 6
 52 -30 29 13 44 80 c 6
 326 1300 l 6
 344 1377 391 1420 448 1420 c 6
 458 1420 l 6
 511 1420 546 1378 578 1310 c 6
 1013 384 l 5
 993 384 l 261
 1214 1340 l 6
 1227 1397 1263 1430 1310 1430 c 6
EndSplineSet
EndChar

StartChar: O
Encoding: 79 79 26
Width: 1440
VWidth: 1872
Flags: HMW
AnchorPoint: "top" 947 1400 basechar 0
AnchorPoint: "bottom" 625 0 basechar 0
LayerCount: 2
Fore
SplineSet
116 603 m 2
 161 798 l 2
 248 1176 531 1434 901 1434 c 0
 1281 1434 1494 1176 1407 798 c 2
 1362 603 l 2
 1275 224 992 -34 622 -34 c 0
 252 -34 29 224 116 603 c 2
310 593 m 2
 242 300 400 103 624 103 c 0
 878 103 1096 300 1164 593 c 2
 1214 808 l 2
 1281 1100 1123 1297 899 1297 c 0
 645 1297 427 1100 360 808 c 2
 310 593 l 2
EndSplineSet
EndChar

StartChar: P
Encoding: 80 80 27
Width: 1238
VWidth: 1872
Flags: HMW
AnchorPoint: "top" 827 1400 basechar 0
AnchorPoint: "bottom" 155 0 basechar 0
LayerCount: 2
Fore
SplineSet
521 1253 m 261
 404 747 l 261
 719 747 l 262
 900 747 1010 818 1038 938 c 262
 1066 1062 l 262
 1094 1182 1012 1253 845 1253 c 262
 521 1253 l 261
839 1400 m 262
 1126 1400 1318 1302 1256 1032 c 262
 1241 968 l 262
 1179 698 1012 601 725 601 c 262
 371 601 l 261
 250 80 l 6
 235 13 185 -30 138 -30 c 6
 128 -30 l 6
 81 -30 48 13 63 80 c 6
 336 1260 l 6
 356 1347 418 1400 505 1400 c 6
 839 1400 l 262
EndSplineSet
EndChar

StartChar: Q
Encoding: 81 81 28
Width: 1550
VWidth: 1872
Flags: HMW
AnchorPoint: "top" 947 1400 basechar 0
AnchorPoint: "bottom" 625 0 basechar 0
LayerCount: 2
Fore
SplineSet
1403 59 m 6
 1403 58 l 6
 1403 11 1357.03830903 -0.15762147864 1345 -3 c 0
 1129 -54 1042 90 1102 349 c 1
 1210 573 l 1
 1131 232 1008 -34 594 -34 c 0
 161 -34 69 232 148 573 c 2
 207 828 l 2
 286 1169 460 1434 903 1434 c 0
 1346 1434 1457 1169 1378 828 c 2
 1261 321 l 2
 1228.70786517 181.06741573 1283 138 1328 127 c 0
 1381.43554688 113.9375 1403 110.083007812 1403 59 c 6
1117 544 m 2
 1189 857 l 2
 1250 1120 1158 1297 891 1297 c 0
 624 1297 471 1120 410 857 c 2
 338 544 l 2
 277 281 359 103 626 103 c 0
 893 103 1056 281 1117 544 c 2
EndSplineSet
EndChar

StartChar: R
Encoding: 82 82 29
Width: 1336
VWidth: 1872
Flags: HMW
AnchorPoint: "top" 877 1400 basechar 0
AnchorPoint: "bottom" 555 0 basechar 0
LayerCount: 2
Fore
SplineSet
522 1250 m 261
 415 790 l 261
 775 790 l 262
 942 790 1058 858 1086 978 c 262
 1105 1062 l 262
 1133 1182 1081 1250 914 1250 c 262
 522 1250 l 261
908 1400 m 262
 1165 1400 1353 1282 1298 1042 c 262
 1292 1018 l 262
 1237 778 1017 680 760 680 c 261
 774 740 l 261
 1031 740 1200 662 1145 422 c 262
 1124 328 l 262
 1098 214 1104 150 1123 91 c 4
 1131 66 1133 46 1130 33 c 6
 1128 28 l 6
 1120 -8 1083 -30 1036 -30 c 6
 1026 -30 l 6
 974 -30 945 1 934 39 c 4
 908 128 914 241 934 328 c 262
 962 452 l 262
 990 572 908 640 741 640 c 262
 381 640 l 261
 254 90 l 6
 236 13 195 -30 138 -30 c 6
 128 -30 l 6
 71 -30 48 13 66 90 c 6
 331 1240 l 6
 356 1347 419 1400 526 1400 c 6
 908 1400 l 262
EndSplineSet
EndChar

StartChar: S
Encoding: 83 83 30
Width: 1238
VWidth: 1872
Flags: HMW
AnchorPoint: "top" 827 1400 basechar 0
AnchorPoint: "bottom" 525 0 basechar 0
LayerCount: 2
Fore
SplineSet
184 538 m 2
 194 538 l 2
 237 538 261 497 245 420 c 0
 242 404 242 396 240 384 c 0
 220 248 302 115 557 115 c 256
 785 115 917.265625 153.7734375 944 318 c 256
 974.309570312 504.186523438 810.334809575 571.736167045 650 624 c 256
 469 683 192.120117188 794.745117188 248 1073 c 256
 302.692644675 1345.34300912 544 1435 791 1435 c 256
 1115 1435 1261 1256 1211 1041 c 2
 1210 1036 l 2
 1195 969 1164 933 1119 933 c 2
 1109 933 l 2
 1064 933 1041 961 1046 1018 c 0
 1047 1034 1048 1042 1049 1054 c 0
 1064 1180 963 1285 779 1285 c 256
 572 1285 470 1213 435 1063 c 256
 400 912 548.008789062 827.65234375 711 780 c 256
 1099.17285156 666.513671875 1171.90388015 535.55456149 1130 318 c 256
 1091.69433545 119.126482247 931 -35 562 -35 c 256
 214 -35 16 153 68 379 c 2
 78 419 l 2
 96 496 141 538 184 538 c 2
EndSplineSet
EndChar

StartChar: T
Encoding: 84 84 31
Width: 1131
VWidth: 1872
Flags: HMW
AnchorPoint: "top" 787 1400 basechar 0
AnchorPoint: "bottom" 425 0 basechar 0
LayerCount: 2
Fore
SplineSet
310 1400 m 6
 1210 1400 l 6
 1287 1400 1310 1367 1310 1330 c 6
 1310 1320 l 6
 1310 1283 1287 1250 1210 1250 c 6
 828 1250 l 261
 557 80 l 6
 539 3 493 -30 446 -30 c 6
 436 -30 l 6
 389 -30 353 3 371 80 c 6
 642 1250 l 261
 310 1250 l 6
 233 1250 210 1283 210 1320 c 6
 210 1330 l 6
 210 1367 233 1400 310 1400 c 6
EndSplineSet
EndChar

StartChar: U
Encoding: 85 85 32
Width: 1344
VWidth: 1872
Flags: HMW
AnchorPoint: "ogonek" 680 0 basechar 0
AnchorPoint: "top" 907 1400 basechar 0
AnchorPoint: "bottom" 585 0 basechar 0
LayerCount: 2
Fore
SplineSet
1012 488 m 262
 1204 1320 l 6
 1222 1397 1262 1430 1309 1430 c 6
 1311 1430 l 6
 1358 1430 1388 1397 1370 1320 c 6
 1180 498 l 262
 1106 178 999 -35 612 -35 c 260
 155 -35 88 208 176 588 c 262
 345 1320 l 6
 363 1397 413 1430 460 1430 c 6
 470 1430 l 6
 517 1430 558 1397 540 1320 c 6
 364 558 l 262
 295 258 357 105 624 105 c 260
 851 105 952 228 1012 488 c 262
EndSplineSet
EndChar

StartChar: V
Encoding: 86 86 33
Width: 1238
VWidth: 1872
Flags: HMW
AnchorPoint: "top" 857 1400 basechar 0
AnchorPoint: "bottom" 535 0 basechar 0
LayerCount: 2
Fore
SplineSet
540 173 m 261
 1160 1305 l 262
 1200 1377 1220 1435 1280 1435 c 262
 1290 1435 l 262
 1360 1435 1391 1376 1350 1305 c 262
 678 110 l 262
 637 39 600 0 510 0 c 262
 500 0 l 262
 410 0 391 39 382 110 c 262
 254 1305 l 262
 245 1376 273 1435 343 1435 c 262
 344 1435 l 262
 404 1435 424 1377 432 1305 c 262
 540 173 l 261
EndSplineSet
EndChar

StartChar: W
Encoding: 87 87 34
Width: 1755
VWidth: 1872
Flags: HMW
AnchorPoint: "top" 1122 1400 basechar 0
AnchorPoint: "bottom" 805 0 basechar 0
LayerCount: 2
Fore
SplineSet
428 210 m 261
 1016 1370 l 6
 1037.83814056 1413.08204599 1067 1430 1094 1430 c 6
 1104 1430 l 6
 1141 1430 1151.23447415 1395.00717778 1152 1370 c 6
 1188 194 l 261
 1711 1320 l 6
 1749.24904357 1402.34880126 1773 1430 1820 1430 c 6
 1825 1430 l 6
 1872 1430 1934.90596938 1391.53545239 1895 1310 c 6
 1293 80 l 6
 1257.61391646 7.69953031615 1218 -30 1161 -30 c 6
 1121 -30 l 6
 1064 -30 1035.95745006 6.9720553625 1034 80 c 6
 1008 1050 l 261
 528 80 l 6
 496.662511739 16.6721591394 435 -30 388 -30 c 6
 353 -30 l 6
 306 -30 276.48354008 7.00982805041 275 80 c 6
 250 1310 l 6
 248.536363787 1382.0109017 288 1430 335 1430 c 6
 340 1430 l 6
 397 1430 424.800910572 1382.99945703 425 1310 c 6
 428 210 l 261
EndSplineSet
EndChar

StartChar: X
Encoding: 88 88 35
Width: 1239
VWidth: 1872
Flags: HMW
AnchorPoint: "top" 837 1400 basechar 0
AnchorPoint: "bottom" 515 0 basechar 0
LayerCount: 2
Fore
SplineSet
1226 1430 m 6
 1231 1430 l 6
 1292 1430 1338 1367 1250 1270 c 6
 766 715 l 261
 1015 130 l 6
 1047.80896825 52.9186890502 1017 -30 940 -30 c 6
 935 -30 l 6
 888 -30 851.433084574 8.39964926204 824 80 c 6
 624 602 l 261
 187 80 l 6
 121.16047582 1.35416104761 85 -30 38 -30 c 6
 33 -30 l 6
 -14 -30 -50.6825225312 24.9932253464 16 102 c 6
 565 736 l 261
 337 1271 l 6
 298.238334876 1361.9539072 363 1430 420 1430 c 6
 425 1430 l 6
 468 1430 497.911855287 1398.73064533 528 1320 c 6
 708 849 l 261
 1123 1340 l 6
 1167 1390 1189 1430 1226 1430 c 6
EndSplineSet
EndChar

StartChar: Y
Encoding: 89 89 36
Width: 1239
VWidth: 1872
Flags: HMW
AnchorPoint: "top" 847 1400 basechar 0
AnchorPoint: "bottom" 525 0 basechar 0
LayerCount: 2
Fore
SplineSet
1282 1430 m 6
 1287 1430 l 6
 1354 1430 1382 1372 1339 1320 c 6
 721 554 l 261
 614 90 l 6
 596.281730578 13.1656354054 547 -30 500 -30 c 6
 490 -30 l 6
 443 -30 410.281730578 13.1656354054 428 90 c 6
 535 554 l 261
 273 1312 l 6
 253.990572257 1366.99674133 298 1430 355 1430 c 6
 360 1430 l 6
 407 1430 442.039088999 1402.01349792 460 1350 c 6
 668 730 l 261
 1171 1350 l 6
 1220 1409 1251 1430 1282 1430 c 6
EndSplineSet
EndChar

StartChar: Z
Encoding: 90 90 37
Width: 1131
VWidth: 1872
Flags: HMW
AnchorPoint: "top" 817 1400 basechar 0
AnchorPoint: "bottom" 495 0 basechar 0
LayerCount: 2
Fore
SplineSet
-32 130 m 6
 985 1253 l 261
 329 1253 l 6
 282 1253 254 1273 265 1320 c 6
 267 1330 l 6
 278 1377 316 1400 363 1400 c 6
 1189 1400 l 6
 1276 1400 1259 1324 1189 1250 c 6
 190 147 l 261
 955 147 l 6
 1012 147 1039 127 1028 80 c 6
 1026 70 l 6
 1015 23 977 0 920 0 c 6
 -10 0 l 6
 -87 0 -91 67 -32 130 c 6
EndSplineSet
EndChar

StartChar: a
Encoding: 97 97 38
Width: 1123
VWidth: 1872
Flags: HMW
AnchorPoint: "ogonek" 810 0 basechar 0
AnchorPoint: "top" 676 1050 basechar 0
AnchorPoint: "bottom" 405 0 basechar 0
LayerCount: 2
Fore
SplineSet
782 406 m 1
 717 123 538 -35 347 -35 c 0
 146 -35 -23 103 54 435 c 2
 95 614 l 2
 167 926 396 1084 597 1084 c 0
 817 1084 902 926 837 644 c 1
 795 625 l 1
 842 830 765 947 614 947 c 0
 472 947 335 847 288 643 c 2
 233 406 l 2
 186 202 277 103 419 103 c 0
 571 103 702 221 749 425 c 1
 782 406 l 1
1003 58 m 2
 1003 50 l 2
 1003 13 976.143559716 -11 889 -11 c 0
 717 -11 661 43 708 246 c 2
 853 878 l 1
 1010 1053 l 2
 1031.24331512 1076.67885443 1044.00097656 1084 1054 1084 c 2
 1056 1084 l 2
 1073 1084 1084.00589323 1070.07740168 1078 1044 c 2
 885 206 l 2
 863 112 881.552491432 98.9597914287 944 101 c 0
 979.99468134 102.175974175 1003 95 1003 58 c 2
EndSplineSet
EndChar

StartChar: b
Encoding: 98 98 39
Width: 1100
VWidth: 1872
Flags: HMW
LayerCount: 2
Fore
SplineSet
411 1480 m 2
 418 1480 l 2
 475 1480 514.006340367 1433.52923162 497 1360 c 2
 222 171 l 1
 68 0 l 2
 46.0153709613 -24.4115036728 37 -34 20 -34 c 2
 18 -34 l 6
 1 -34 -7.40359791295 -19.0597390126 3 26 c 2
 311 1360 l 2
 328.001953125 1433.53125 354 1480 411 1480 c 2
304 644 m 1
 369 927 515 1084 706 1084 c 0
 907 1084 1126 946 1049 614 c 2
 1008 436 l 2
 936 124 688 -34 487 -34 c 0
 267 -34 164 123 229 405 c 1
 281 425 l 1
 234 220 319 113 470 113 c 0
 612 113 768 203 815 407 c 2
 869 643 l 2
 916 847 807 947 665 947 c 0
 513 947 374 829 327 625 c 1
 304 644 l 1
EndSplineSet
EndChar

StartChar: c
Encoding: 99 99 40
Width: 968
VWidth: 1872
Flags: HMW
AnchorPoint: "bottom" 410 0 basechar 0
AnchorPoint: "top" 646 1050 basechar 0
LayerCount: 2
Fore
SplineSet
881 340 m 4
 875.127071092 319.640513119 863 293 845 253 c 0
 762 71 623 -34 425 -34 c 0
 153 -34 -23 146 44 437 c 2
 85 614 l 2
 152 904 337 1084 609 1084 c 0
 810 1084 969 1023 969 823 c 0
 969 772 952.225935085 730.594114374 946 710 c 0
 932.942520464 666.80853987 915 633 868 633 c 2
 862 633 l 2
 815 633 788 666 803 723 c 0
 807.829248718 741.351145128 816 771 816 807 c 0
 816 909 715 947 603 947 c 0
 455 947 323 838 278 643 c 2
 224 408 l 2
 180 220 280 104 433 104 c 0
 543 104 633 159 683 253 c 0
 704 292 709.068357714 304.72265219 720 331 c 0
 738.259848618 374.892800417 751 418 808 418 c 6
 815 418 l 6
 862 418 896 392 881 340 c 4
EndSplineSet
EndChar

StartChar: d
Encoding: 100 100 41
Width: 1100
VWidth: 1872
Flags: HMW
LayerCount: 2
Fore
SplineSet
819 406 m 1
 754 123 585 -34 394 -34 c 0
 193 -34 -23 104 54 436 c 2
 95 614 l 2
 172 946 421 1084 622 1084 c 0
 813 1084 919 927 854 644 c 1
 822 625 l 1
 869 829 783 947 631 947 c 0
 489 947 335 847 288 643 c 2
 234 407 l 2
 187 203 294 103 436 103 c 0
 588 103 729 221 776 425 c 1
 819 406 l 1
1173 1340 m 2
 882 80 l 2
 867.208477523 15.9542325722 856 -30 789 -30 c 2
 787 -30 l 2
 730 -30 695.185811704 15.9644763969 710 80 c 2
 741 214 l 1
 735 246 l 1
 987 1340 l 2
 1010.5060571 1442.04613676 1045 1480 1092 1480 c 2
 1095 1480 l 2
 1162 1480 1192.1672636 1423.03733088 1173 1340 c 2
EndSplineSet
EndChar

StartChar: e
Encoding: 101 101 42
Width: 1074
VWidth: 1872
Flags: HMW
AnchorPoint: "ogonek" 664 60 basechar 0
AnchorPoint: "bottom" 434 0 basechar 0
AnchorPoint: "top" 687 1050 basechar 0
LayerCount: 2
Fore
SplineSet
917 283 m 0
 908 260 900 239 876 193 c 0
 798 45 643 -34 466 -34 c 0
 203 -34 14 134 84 437 c 2
 125 614 l 2
 193 907 362 1084 632 1084 c 0
 892 1084 1049.55393154 889.067036654 1022 683 c 0
 1018.463555 656.552059499 1014.9179041 627.236568212 1008 593 c 0
 990.832123968 508.036526864 961 485 874 485 c 2
 216 485 l 1
 243 592 l 1
 830 592 l 1
 909 837 781 967 623 967 c 0
 472 967 364 847 317 643 c 2
 263 408 l 2
 214 194 312 83 473 83 c 0
 631 83 713 180 756 286 c 0
 776.30251344 336.048056386 801 372 848 372 c 2
 855 372 l 2
 902 372 937.418945312 335.182617188 917 283 c 0
EndSplineSet
EndChar

StartChar: f
Encoding: 102 102 43
Width: 602
VWidth: 1872
Flags: HMW
LayerCount: 2
Fore
SplineSet
636 943 m 2
 202 943 l 2
 175 943 144 961 144 998 c 2
 144 1000 l 2
 144 1027 174 1050 201 1050 c 2
 645 1050 l 2
 672 1050 696 1036 696 999 c 2
 696 997 l 2
 696 960 663 943 636 943 c 2
329 1188 m 262
 377 1395 517.362346409 1509.55022346 754 1438 c 4
 809.591919427 1421.19111858 818.714257813 1379.42851563 808 1358 c 6
 806 1354 l 6
 790.607617187 1323.21523437 775.766036374 1309.27801604 717 1330 c 4
 580.018255921 1378.30227933 534 1293 505 1168 c 262
 171 -280 l 6
 158.415369567 -334.558517566 120 -390 63 -390 c 6
 60 -390 l 6
 -7 -390 -22.5976647011 -334.552719119 -10 -280 c 6
 329 1188 l 262
EndSplineSet
EndChar

StartChar: g
Encoding: 103 103 44
Width: 968
VWidth: 1872
Flags: HMW
AnchorPoint: "top" 549 1100 basechar 0
LayerCount: 2
Fore
SplineSet
1061 1170 m 0
 995 1039 798 970 749 970 c 257
 726 1000 l 257
 785 1000 821 1058 873 1181 c 0
 909 1265 939 1290 986 1290 c 6
 996 1290 l 6
 1043 1290 1106 1260 1061 1170 c 0
560 252 m 2
 774 233 887 125 845 -59 c 0
 798 -262 584 -360 350 -360 c 2
 203 -360 l 2
 -20 -360 -175 -243 -132 -57 c 0
 -98 89 54 167 214 186 c 1
 235 147 l 1
 143 128 64 49 44 -38 c 0
 8 -193 135 -233 289 -233 c 2
 361 -233 l 2
 524 -233 649 -155 676 -39 c 0
 698 57 659 108 499 117 c 2
 287 128 l 2
 111 139 41 206 65 311 c 0
 87 407 180 450 346 450 c 1
 355 410 l 1
 259 410 208 379 199 342 c 0
 185 282 278 276 395 266 c 2
 560 252 l 2
765 697 m 2
 772 729 l 2
 805 873 703 957 566 957 c 0
 423 957 324 905 293 769 c 2
 286 737 l 2
 254 600 341 517 484 517 c 0
 620 517 732 553 765 697 c 2
920 689 m 2
 877 502 706 390 475 390 c 0
 244 390 74 542 117 729 c 2
 128 777 l 2
 171 964 344 1084 575 1084 c 0
 806 1084 974 924 931 737 c 2
 920 689 l 2
EndSplineSet
EndChar

StartChar: h
Encoding: 104 104 45
Width: 1075
VWidth: 1872
Flags: HMW
AnchorPoint: "bottom" 434 0 basechar 0
AnchorPoint: "top" 438 1450 basechar 0
LayerCount: 2
Fore
SplineSet
420 1480 m 6
 430 1480 l 6
 477 1480 522 1447 504 1370 c 6
 206 80 l 6
 188 3 148 -30 101 -30 c 6
 91 -30 l 6
 44 -30 2 3 20 80 c 6
 318 1370 l 6
 336 1447 373 1480 420 1480 c 6
331 703 m 261
 382 923 515 1084 722 1084 c 260
 929 1084 1057 963 1011 763 c 262
 853 80 l 6
 835 3 798 -30 751 -30 c 6
 741 -30 l 6
 694 -30 648 3 666 80 c 6
 824 763 l 262
 852 883 810 955 673 955 c 260
 506 955 380 833 332 623 c 261
 331 703 l 261
EndSplineSet
EndChar

StartChar: i
Encoding: 105 105 46
Width: 434
VWidth: 1872
Flags: HMW
AnchorPoint: "bottom" 104 0 basechar 0
AnchorPoint: "ogonek" 104 0 basechar 0
LayerCount: 2
Fore
SplineSet
531 1335 m 2
 531 1325 l 2
 531 1261 481 1210 411 1210 c 2
 401 1210 l 2
 331 1210 281 1261 281 1325 c 2
 281 1335 l 2
 281 1399 331 1450 401 1450 c 2
 411 1450 l 2
 481 1450 531 1399 531 1335 c 2
415 970 m 6
 209 80 l 6
 191 3 153 -30 106 -30 c 6
 96 -30 l 6
 49 -30 5 3 23 80 c 6
 229 970 l 6
 247 1047 287 1080 334 1080 c 6
 344 1080 l 6
 391 1080 433 1047 415 970 c 6
EndSplineSet
EndChar

StartChar: j
Encoding: 106 106 47
Width: 434
VWidth: 1872
Flags: HMW
LayerCount: 2
Fore
SplineSet
177 -59 m 6
 128 -271 -1 -371 -180 -371 c 4
 -359 -371 -386.611328125 -266.302734375 -370 -167 c 4
 -360.919921875 -112.717773438 -330 -85 -283 -85 c 6
 -277 -85 l 6
 -230 -85 -198.798828125 -113.934570312 -209 -167 c 4
 -218.725585938 -217.588867188 -210 -244 -165 -244 c 4
 -97 -244 -38 -185 -9 -60 c 6
 229 970 l 6
 243.798225394 1034.04274015 276 1080 333 1080 c 6
 339 1080 l 6
 396 1080 432.006720843 1043.52905776 415 970 c 6
 177 -59 l 6
531 1335 m 2
 531 1325 l 2
 531 1261 481 1210 411 1210 c 2
 401 1210 l 2
 331 1210 281 1261 281 1325 c 2
 281 1335 l 2
 281 1399 331 1450 401 1450 c 2
 411 1450 l 2
 481 1450 531 1399 531 1335 c 2
EndSplineSet
EndChar

StartChar: k
Encoding: 107 107 48
Width: 970
VWidth: 1872
Flags: HMW
LayerCount: 2
Fore
SplineSet
432 1480 m 6
 442 1480 l 6
 489 1480 517 1447 499 1370 c 6
 201 80 l 6
 183 3 140 -30 93 -30 c 6
 83 -30 l 6
 36 -30 -3 3 15 80 c 6
 313 1370 l 6
 331 1447 385 1480 432 1480 c 6
203 501 m 261
 764 1000 l 6
 836 1061 879 1080 907 1080 c 6
 911 1080 l 6
 978 1080 1005.48351278 1010.65130922 929 950 c 6
 272 429 l 261
 203 501 l 261
460 650 m 261
 600 713 l 261
 818 137 l 6
 861 30 803 -30 756 -30 c 6
 746 -30 l 6
 698 -30 660 -7 636 60 c 6
 460 650 l 261
EndSplineSet
EndChar

StartChar: l
Encoding: 108 108 49
Width: 434
VWidth: 1872
Flags: HMW
LayerCount: 2
Fore
SplineSet
427 1480 m 6
 437 1480 l 6
 484 1480 525 1447 507 1370 c 6
 209 80 l 6
 191 3 155 -30 108 -30 c 6
 98 -30 l 6
 51 -30 5 3 23 80 c 6
 321 1370 l 6
 339 1447 380 1480 427 1480 c 6
EndSplineSet
EndChar

StartChar: m
Encoding: 109 109 50
Width: 1609
VWidth: 1872
Flags: HMW
LayerCount: 2
Fore
SplineSet
884 708 m 261
 935 928 1094 1085 1281 1085 c 260
 1468 1085 1589.20213937 962.721906266 1543 763 c 262
 1385 80 l 6
 1367 3 1317 -30 1270 -30 c 6
 1260 -30 l 6
 1213 -30 1181 3 1199 80 c 6
 1357 763 l 262
 1385 883 1350 957 1233 957 c 260
 1086 957 970 836 922 626 c 261
 884 708 l 261
335 1080 m 6
 345 1080 l 6
 392 1080 423 1047 405 970 c 6
 378 852 l 261
 381 825 l 261
 209 80 l 6
 191 3 141 -30 94 -30 c 6
 84 -30 l 6
 37 -30 4 3 22 80 c 6
 228 970 l 6
 246 1047 288 1080 335 1080 c 6
  Spiro
    335 1080 [
    345 1080 ]
    385.412 1068.62 o
    407.9 1032.69 o
    405 970 [
    378 852 v
    381 825 v
    209 80 ]
    181.665 17.3082 o
    140.659 -18.6158 o
    94 -30 [
    84 -30 ]
    43.0706 -18.6158 o
    19.6178 17.3082 o
    22 80 [
    228 970 ]
    253.264 1032.69 o
    290.412 1068.62 o
    0 0 z
  EndSpiro
315 713 m 261
 366 933 525 1085 692 1085 c 260
 879 1085 1000 963 954 763 c 262
 796 80 l 6
 778 3 728 -30 681 -30 c 6
 671 -30 l 6
 624 -30 593 3 611 80 c 6
 769 763 l 262
 797 883 759 955 642 955 c 260
 495 955 382 833 334 623 c 261
 315 713 l 261
  Spiro
    315 713 v
    398.184 907.057 o
    531.521 1037.54 o
    692 1085 o
    853.127 1046.04 o
    948.128 935.227 o
    954 763 [
    796 80 ]
    768.665 17.3082 o
    727.659 -18.6158 o
    681 -30 [
    671 -30 ]
    630.588 -18.6158 o
    608.1 17.3082 o
    611 80 [
    769 763 ]
    774.536 866.026 o
    733.082 931.934 o
    642 955 o
    507.602 915.67 o
    402.431 802.26 o
    334 623 v
    0 0 z
  EndSpiro
EndSplineSet
EndChar

StartChar: n
Encoding: 110 110 51
Width: 1074
VWidth: 1872
Flags: HMW
AnchorPoint: "bottom" 434 0 basechar 0
AnchorPoint: "top" 677 1050 basechar 0
LayerCount: 2
Fore
SplineSet
332 1080 m 6
 342 1080 l 6
 389 1080 420 1047 402 970 c 6
 371 837 l 261
 375 810 l 261
 206 80 l 6
 188 3 138 -30 91 -30 c 6
 81 -30 l 6
 34 -30 1 3 19 80 c 6
 225 970 l 6
 243 1047 285 1080 332 1080 c 6
310 703 m 261
 361 923 506 1085 713 1085 c 260
 920 1085 1056 963 1010 763 c 262
 852 80 l 6
 834 3 788 -30 741 -30 c 6
 731 -30 l 6
 684 -30 648 3 666 80 c 6
 824 763 l 262
 852 883 808 957 671 957 c 260
 504 957 380 833 332 623 c 261
 310 703 l 261
EndSplineSet
EndChar

StartChar: o
Encoding: 111 111 52
Width: 1075
VWidth: 1872
Flags: HMW
AnchorPoint: "top" 647 1050 basechar 0
AnchorPoint: "bottom" 434 0 basechar 0
LayerCount: 2
Fore
SplineSet
68 437 m 2
 109 614 l 2
 174 897 368 1084 638 1084 c 0
 928 1084 1075 897 1010 614 c 2
 969 437 l 2
 904 154 710 -34 440 -34 c 0
 150 -34 3 154 68 437 c 2
252 408 m 2
 209 223 269 93 449 93 c 0
 599 93 728 223 771 408 c 2
 825 643 l 2
 868 828 809 957 629 957 c 0
 479 957 349 828 306 643 c 2
 252 408 l 2
EndSplineSet
EndChar

StartChar: p
Encoding: 112 112 53
Width: 1100
VWidth: 1872
Flags: HMW
LayerCount: 2
Fore
SplineSet
284 644 m 1
 349 927 534 1084 725 1084 c 0
 926 1084 1126 946 1049 614 c 2
 1008 436 l 2
 932 106 748 -34 517 -34 c 0
 326 -34 174 123 239 406 c 1
 281 425 l 1
 234 221 337 103 489 103 c 0
 631 103 768 203 815 407 c 2
 869 643 l 2
 916 847 826 947 684 947 c 0
 532 947 374 829 327 625 c 1
 284 644 l 1
-68 -280 m 2
 221 970 l 2
 236 1037 274 1080 321 1080 c 2
 326 1080 l 2
 373 1080 407 1037 392 970 c 2
 360 830 l 257
 367 798 l 257
 118 -280 l 2
 103 -347 54 -390 7 -390 c 2
 -3 -390 l 2
 -50 -390 -83 -347 -68 -280 c 2
EndSplineSet
EndChar

StartChar: q
Encoding: 113 113 54
Width: 1100
VWidth: 1872
Flags: HMW
LayerCount: 2
Fore
SplineSet
698 -390 m 6
 688 -390 l 6
 641 -390 596 -357 611 -290 c 6
 878 865 l 261
 962 985 l 6
 1004 1044 1039 1075 1066 1075 c 6
 1067 1075 l 6
 1094 1075 1109 1062 1098 1015 c 6
 797 -290 l 6
 782 -357 745 -390 698 -390 c 6
799 406 m 1
 734 123 568 -35 377 -35 c 0
 176 -35 -24 103 53 435 c 2
 95 614 l 2
 167 926 375 1084 576 1084 c 0
 796 1084 949 926 884 644 c 1
 822 625 l 1
 869 830 765 947 614 947 c 0
 472 947 335 847 288 643 c 2
 234 406 l 2
 187 202 277 103 419 103 c 0
 571 103 729 221 776 425 c 1
 799 406 l 1
EndSplineSet
EndChar

StartChar: r
Encoding: 114 114 55
Width: 834
VWidth: 1872
Flags: HMW
AnchorPoint: "top" 577 1050 basechar 0
AnchorPoint: "bottom" 104 0 basechar 0
LayerCount: 2
Fore
SplineSet
348 713 m 1
 332 770 l 1
 369 930 520 1084 682 1084 c 0
 891 1084 891.8359375 869.041015625 790 720 c 0
 759.488254671 675.344825963 719 633 672 633 c 6
 670 633 l 6
 623 633 586.685424519 675.799822802 616 720 c 0
 741.279028985 908.894268104 692 957 613 957 c 0
 515 957 381 858 348 713 c 1
319 1080 m 10
 324 1080 l 2
 371 1080 410 1047 392 970 c 2
 347 774 l 257
 360 765 l 257
 201 80 l 2
 183 3 143 -30 96 -30 c 2
 86 -30 l 2
 39 -30 -3 3 15 80 c 2
 221 970 l 2
 239 1047 272 1080 319 1080 c 10
EndSplineSet
EndChar

StartChar: s
Encoding: 115 115 56
Width: 968
VWidth: 1872
Flags: HMW
AnchorPoint: "top" 587 1050 basechar 0
AnchorPoint: "bottom" 364 0 basechar 0
LayerCount: 2
Fore
SplineSet
111 388 m 6
 121 388 l 6
 158 388 172 359 167 312 c 4
 165 291 165 280 165 271 c 4
 161 175 182 93 362 93 c 260
 547 93 644.249277873 169.179229207 668 267 c 260
 727 510 90 412 166 778 c 260
 203.975516688 960.882093525 381 1085 608 1085 c 260
 808 1085 945 980 928 834 c 4
 926 821 924 812 922 802 c 4
 904 725 870 698 823 698 c 6
 814 698 l 6
 777 698 757 721 765 783 c 4
 768 805 768 817 768 826 c 4
 768 901 693 952 597 952 c 260
 469 952 361.601169688 895.090894335 339 795 c 260
 283 547 944 649 846 252 c 260
 793.853145513 40.7520282532 603 -35 339 -35 c 260
 111 -35 -21 73 0 236 c 4
 1 243 1 250 6 270 c 4
 24 347 64 388 111 388 c 6
EndSplineSet
EndChar

StartChar: t
Encoding: 116 116 57
Width: 608
VWidth: 1872
Flags: HMW
AnchorPoint: "bottom" 234 0 basechar 0
LayerCount: 2
Fore
SplineSet
590 933 m 6
 230 933 l 6
 153 933 120 938 120 985 c 6
 120 995 l 6
 120 1042 153 1050 230 1050 c 6
 590 1050 l 6
 667 1050 700 1042 700 995 c 6
 700 985 l 6
 700 938 667 933 590 933 c 6
515 80 m 6
 515 70 l 6
 515 22.8583984375 457.000001045 -1.64609819608 379 -8 c 4
 156.358874638 -26.1364080655 46 44 94 252 c 262
 343 1330 l 6
 361 1407 396 1450 443 1450 c 6
 448 1450 l 6
 495 1450 532 1407 514 1330 c 6
 270 272 l 262
 234.156070914 116.57837306 320.000838792 114.934221563 401 116 c 4
 477 117 515 127 515 80 c 6
EndSplineSet
EndChar

StartChar: u
Encoding: 117 117 58
Width: 1074
VWidth: 1872
Flags: HMW
AnchorPoint: "ogonek" 750 0 basechar 0
AnchorPoint: "bottom" 414 0 basechar 0
AnchorPoint: "top" 657 1050 basechar 0
LayerCount: 2
Fore
SplineSet
758 -30 m 6
 753 -30 l 6
 706 -30 660 3 678 80 c 6
 705 193 l 261
 703 250 l 261
 869 970 l 6
 887 1047 927 1080 974 1080 c 6
 984 1080 l 6
 1031 1080 1073 1047 1055 970 c 6
 849 80 l 6
 831.117651006 2.74130774466 805 -30 758 -30 c 6
764 347 m 261
 713 127 533 -35 326 -35 c 260
 119 -35 18 87 64 287 c 262
 222 970 l 6
 240 1047 280 1080 327 1080 c 6
 337 1080 l 6
 384 1080 426 1047 408 970 c 6
 250 287 l 262
 224 167 263 95 400 95 c 260
 567 95 696 217 744 427 c 261
 764 347 l 261
EndSplineSet
EndChar

StartChar: v
Encoding: 118 118 59
Width: 969
VWidth: 1872
Flags: HMW
LayerCount: 2
Fore
SplineSet
397 162 m 261
 847 970 l 6
 887 1040 914 1080 961 1080 c 6
 962 1080 l 6
 1019 1080 1068 1039 1027 970 c 6
 502 80 l 6
 450 -7 410 -30 363 -30 c 6
 349 -30 l 6
 302 -30 266 -7 255 80 c 6
 151 970 l 6
 142 1039 190 1080 237 1080 c 6
 247 1080 l 6
 294 1080 321 1040 328 970 c 6
 397 162 l 261
EndSplineSet
EndChar

StartChar: w
Encoding: 119 119 60
Width: 1401
VWidth: 1872
Flags: HMW
LayerCount: 2
Fore
SplineSet
923 211 m 261
 1282 970 l 6
 1317 1043 1336 1080 1383 1080 c 6
 1393 1080 l 6
 1440 1080 1486 1041 1449 970 c 6
 999 80 l 6
 962 9 923 -30 876 -30 c 6
 871 -30 l 6
 824 -30 796 7 793 80 c 6
 767 796 l 261
 416 80 l 6
 379 7 340 -30 293 -30 c 6
 278 -30 l 6
 231 -30 204 7 200 80 c 6
 162 930 l 6
 157 1030 187 1080 244 1080 c 6
 247 1080 l 6
 294 1080 328 1043 329 970 c 6
 332 211 l 261
 707 970 l 6
 743 1042 783 1080 830 1080 c 6
 835 1080 l 6
 882 1080 900 1043 902 970 c 6
 923 211 l 261
EndSplineSet
EndChar

StartChar: x
Encoding: 120 120 61
Width: 966
VWidth: 1872
Flags: HMW
LayerCount: 2
Fore
SplineSet
38 -30 m 6
 33 -30 l 6
 -34 -30 -39.6623113741 48.1770392586 38 140 c 6
 389 555 l 261
 222 940 l 6
 188.870061437 1016.37740327 237 1080 294 1080 c 6
 299 1080 l 6
 346 1080 370.939271483 1048.97611592 402 970 c 6
 531 642 l 261
 784 970 l 6
 848.165245669 1053.18656355 875 1080 912 1080 c 6
 917 1080 l 6
 974 1080 998.688570547 1010.8322562 921 920 c 6
 590 533 l 261
 743 150 l 6
 783.023327729 49.8108854895 763 -30 696 -30 c 6
 686 -30 l 6
 638 -30 612.895744202 14.2670569692 590 80 c 6
 466 436 l 261
 170 80 l 6
 109.588116743 7.34246473091 85 -30 38 -30 c 6
EndSplineSet
EndChar

StartChar: y
Encoding: 121 121 62
Width: 969
VWidth: 1872
Flags: HMW
AnchorPoint: "top" 607 1050 basechar 0
LayerCount: 2
Fore
SplineSet
389 211 m 1
 833 970 l 2
 876.295938915 1044.01265233 891 1080 948 1080 c 2
 949 1080 l 2
 1006 1080 1036.73382209 1023.3382614 987 939 c 2
 369 -109 l 2
 253.288065926 -305.166423082 147 -371 0 -371 c 4
 -199 -371 -206 -244 -177 -167 c 0
 -157.938081922 -116.387320964 -120 -70 -63 -70 c 2
 -61 -70 l 2
 -4 -70 -1.36066906957 -117.295117519 -20 -167 c 0
 -35 -207 -37 -253 18 -253 c 0
 90 -253 152 -194 252 -12 c 1
 168 940 l 2
 160.462660944 1025.42317597 184 1080 241 1080 c 2
 245 1080 l 2
 292 1080 320.818308184 1044.57616769 327 969 c 2
 389 211 l 1
EndSplineSet
EndChar

StartChar: z
Encoding: 122 122 63
Width: 967
VWidth: 1872
Flags: HMW
AnchorPoint: "top" 637 1050 basechar 0
LayerCount: 2
Fore
SplineSet
72 160 m 6
 733 903 l 5
 320 903 l 6
 241 903 206 921 206 970 c 6
 206 980 l 6
 206 1029 245 1050 324 1050 c 6
 908 1050 l 6
 1005 1050 1001.79129477 971.84283714 947 910 c 6
 271 147 l 5
 747 147 l 6
 824 147 870 127 870 80 c 6
 870 70 l 6
 870 23 819 0 742 0 c 6
 92 0 l 6
 6 0 3.93899612728 83.495724845 72 160 c 6
EndSplineSet
EndChar

StartChar: comma
Encoding: 44 44 65
Width: 540
VWidth: 1920
Flags: HMW
LayerCount: 2
Fore
SplineSet
-5 -220 m 6
 -6 -220 l 6
 -23 -220 -27.9584074454 -204.666429742 -2 -169 c 6
 121 0 l 261
 119 0 l 6
 100.479492188 0 50 31.404296875 50 90 c 6
 50 100 l 6
 50 167 107 240 184 240 c 6
 194 240 l 6
 271 240 320 187 320 120 c 6
 320 110 l 6
 320 63 278.40573359 8.24602495646 235 -28 c 6
 138 -109 l 6
 42.0758315763 -189.101625179 13 -220 -5 -220 c 6
EndSplineSet
EndChar

StartChar: exclam
Encoding: 33 33 67
Width: 540
VWidth: 1920
Flags: HMW
LayerCount: 2
Fore
SplineSet
182 -30 m 6
 172 -30 l 6
 95 -30 42 33 42 100 c 6
 42 110 l 6
 42 177 95 240 172 240 c 6
 182 240 l 6
 259 240 312 177 312 110 c 6
 312 100 l 6
 312 33 259 -30 182 -30 c 6
293 1030 m 2
 371 1370 l 2
 389 1447 440 1480 487 1480 c 2
 497 1480 l 2
 544 1480 579 1447 561 1370 c 2
 483 1030 l 2
 472 983 451 906 435 860 c 2
 302 480 l 2
 282 424 263 410 246 410 c 2
 244 410 l 2
 227 410 214 424 220 480 c 2
 263 860 l 2
 268 906 282 983 293 1030 c 2
EndSplineSet
EndChar

StartChar: quotesingle
Encoding: 39 39 70
Width: 370
VWidth: 1920
Flags: HMW
LayerCount: 2
Fore
SplineSet
285 930 m 6
 275 930 l 6
 258 930 254 945 254 980 c 6
 252 1170 l 6
 251 1227 257 1288 268 1335 c 6
 269 1340 l 6
 282 1397 338 1450 395 1450 c 6
 405 1450 l 6
 462 1450 492 1397 479 1340 c 6
 478 1335 l 6
 467 1288 445 1227 418 1170 c 6
 328 980 l 6
 311 945 302 930 285 930 c 6
EndSplineSet
EndChar

StartChar: question
Encoding: 63 63 71
Width: 1080
VWidth: 1920
Flags: HMW
LayerCount: 2
Fore
SplineSet
474 -30 m 6
 464 -30 l 6
 387 -30 334 33 334 100 c 6
 334 110 l 6
 334 177 387 240 464 240 c 6
 474 240 l 6
 551 240 604 177 604 110 c 6
 604 100 l 6
 604 33 551 -30 474 -30 c 6
517 370 m 2
 515 370 l 2
 488 370 468 398 476 439 c 0
 537 742 859 754 921 1023 c 258
 932 1068 l 258
 971 1238 924 1335 767 1335 c 256
 597 1335 490 1235 448 1052 c 258
 443 1032 l 2
 425 955 380 922 333 922 c 2
 323 922 l 2
 276 922 245 955 263 1032 c 2
 268 1052 l 258
 331 1326 535 1485 812 1485 c 256
 1059 1485 1195 1343 1133 1073 c 258
 1127 1048 l 258
 1055 735 743 729 598 438 c 0
 579 399 544 370 517 370 c 2
EndSplineSet
EndChar

StartChar: parenleft
Encoding: 40 40 72
Width: 535
VWidth: 2048
Flags: HMW
LayerCount: 2
Fore
SplineSet
143 838 m 262
 237 1243 444 1557 743 1618 c 4
 772 1624 781 1607 775 1580 c 6
 772 1570 l 6
 766 1543 750 1538 723 1526 c 4
 566 1459 416 1259 323 858 c 262
 216 392 l 262
 123 -9 181 -209 307 -276 c 4
 329 -288 342 -293 336 -320 c 6
 334 -330 l 6
 328 -357 310 -374 284 -368 c 4
 13 -307 -49 7 45 412 c 262
 143 838 l 262
EndSplineSet
EndChar

StartChar: parenright
Encoding: 41 41 73
Width: 535
VWidth: 2048
Flags: HMW
LayerCount: 2
Fore
SplineSet
440 412 m 258
 346 7 140 -307 -159 -368 c 0
 -188 -374 -197 -357 -191 -330 c 2
 -189 -320 l 2
 -183 -293 -166 -288 -139 -276 c 0
 18 -209 167 -9 260 392 c 258
 368 858 l 258
 461 1259 403 1459 277 1526 c 0
 255 1538 241 1543 247 1570 c 2
 250 1580 l 2
 256 1607 273 1624 299 1618 c 0
 570 1557 632 1243 538 838 c 258
 440 412 l 258
EndSplineSet
EndChar

StartChar: asterisk
Encoding: 42 42 74
Width: 914
VWidth: 2048
Flags: HMW
LayerCount: 2
Back
SplineSet
492 1020 m 261
 422 1020 l 261
 380 1320 l 6
 374 1366 369 1392 369 1409 c 6
 369 1410 l 6
 369 1447 400 1480 452 1480 c 6
 462 1480 l 6
 514 1480 545 1447 545 1410 c 6
 545 1409 l 6
 545 1382 540 1366 534 1320 c 6
 492 1020 l 261
EndSplineSet
Fore
SplineSet
576 986 m 257
 569 1053 l 257
 872 1186 l 2
 919 1206 946 1219 963 1224 c 2
 964 1224 l 2
 1002 1235 1037 1216 1042 1167 c 2
 1043 1157 l 2
 1048 1108 1017 1068 979 1057 c 2
 978 1056 l 2
 950 1048 934 1048 886 1039 c 2
 576 986 l 257
539 1000 m 257
 605 1041 l 257
 765 823 l 2
 789 789 804 772 811 758 c 2
 812 757 l 2
 827 727 810 682 761 651 c 2
 752 645 l 2
 703 614 660 623 645 653 c 2
 645 654 l 2
 634 676 632 692 619 733 c 2
 539 1000 l 257
549 1041 m 257
 597 1000 l 257
 392 732 l 2
 361 691 344 668 331 654 c 2
 330 653 l 2
 301 623 255 614 220 645 c 2
 213 651 l 2
 178 682 183 727 212 757 c 2
 212 757 l 2
 233 779 249 789 289 823 c 2
 549 1041 l 257
591 1053 m 257
 554 986 l 257
 268 1039 l 2
 224 1048 199 1051 184 1056 c 2
 183 1057 l 2
 151 1068 138 1108 165 1157 c 2
 170 1167 l 2
 197 1216 244 1235 276 1224 c 2
 277 1224 l 2
 301 1216 313 1206 350 1186 c 2
 591 1053 l 257
607 1020 m 257
 537 1020 l 257
 565 1320 l 2
 570 1366 570 1392 574 1409 c 2
 575 1410 l 2
 584 1447 622 1480 674 1480 c 2
 684 1480 l 2
 736 1480 760 1447 751 1410 c 2
 750 1409 l 2
 744 1382 736 1366 719 1320 c 2
 607 1020 l 257
EndSplineSet
EndChar

StartChar: at
Encoding: 64 64 75
Width: 1990
VWidth: 1920
Flags: HMW
LayerCount: 2
Fore
SplineSet
1254 472 m 257
 1187 182 1007 40 810 40 c 256
 623 40 482 157 560 497 c 258
 567 528 l 258
 641 848 831 985 1018 985 c 256
 1225 985 1350 843 1283 553 c 257
 1178 533 l 257
 1226 743 1173 845 1036 845 c 256
 909 845 811 763 763 553 c 258
 744 472 l 258
 696 262 756 180 883 180 c 256
 1020 180 1121 282 1169 492 c 257
 1254 472 l 257
1106 -285 m 0
 1017 -328 932 -360 782 -360 c 256
 225 -360 -17 13 94 493 c 258
 115 583 l 258
 233 1093 699 1435 1236 1435 c 256
 1843 1435 2006 1024 1916 633 c 258
 1895 543 l 258
 1812 183 1586 40 1379 40 c 256
 1172 40 1098 185 1149 405 c 258
 1234 775 l 257
 1319 895 l 2
 1361 954 1395 985 1422 985 c 2
 1423 985 l 2
 1450 985 1470 972 1459 925 c 2
 1348 445 l 2
 1303 250 1325 180 1432 180 c 256
 1529 180 1660 303 1715 543 c 258
 1736 633 l 258
 1814 973 1651 1295 1204 1295 c 256
 797 1295 404 1013 307 593 c 258
 282 483 l 258
 194 103 377 -220 814 -220 c 256
 916 -220 1008 -191 1081 -154 c 0
 1143 -123 1176 -147 1178 -172 c 2
 1179 -178 l 2
 1183 -213 1162 -257 1106 -285 c 0
EndSplineSet
EndChar

StartChar: dollar
Encoding: 36 36 76
Width: 1110
VWidth: 1920
Flags: HMW
LayerCount: 2
Fore
SplineSet
154 538 m 2
 164 538 l 2
 207 538 235 497 217 420 c 2
 215 410 l 2
 182 266 247 115 467 115 c 256
 685 115 775 197 817 378 c 256
 844 495 790 555 560 614 c 256
 322 675 178 815 228 1033 c 256
 283 1273 464 1435 751 1435 c 256
 1045 1435 1140 1256 1090 1041 c 2
 1089 1036 l 2
 1074 969 1030 933 985 933 c 2
 975 933 l 2
 930 933 903 964 916 1021 c 2
 918 1031 l 2
 949 1166 914 1295 719 1295 c 256
 542 1295 448 1203 413 1053 c 256
 378 902 462 830 621 792 c 256
 932 717 1053 576 1010 388 c 256
 953 141 791 -35 432 -35 c 256
 124 -35 -14 153 38 379 c 2
 48 419 l 2
 66 496 111 538 154 538 c 2
792 1590 m 2
 802 1590 l 2
 819 1590 835 1577 826 1540 c 2
 438 -140 l 2
 429 -177 408 -190 391 -190 c 2
 381 -190 l 2
 364 -190 349 -177 358 -140 c 2
 746 1540 l 2
 755 1577 775 1590 792 1590 c 2
EndSplineSet
EndChar

StartChar: numbersign
Encoding: 35 35 77
Width: 1300
VWidth: 1920
Flags: HMW
LayerCount: 2
Fore
SplineSet
125 540 m 6
 1105 540 l 2
 1162 540 1182 527 1173 490 c 2
 1171 480 l 2
 1162 443 1137 430 1079 430 c 2
 99 430 l 6
 32 430 22 443 31 480 c 2
 33 490 l 2
 42 527 58 540 125 540 c 6
332 1050 m 2
 1302 1050 l 2
 1359 1050 1380 1037 1371 1000 c 2
 1369 990 l 2
 1360 953 1334 940 1277 940 c 2
 307 940 l 2
 240 940 220 953 229 990 c 2
 231 1000 l 2
 240 1037 265 1050 332 1050 c 2
1215 1430 m 2
 1220 1430 l 2
 1270 1430 1286 1383 1247 1300 c 2
 676 80 l 2
 642 7 618 -30 568 -30 c 2
 563 -30 l 2
 513 -30 502 27 536 100 c 2
 1107 1320 l 2
 1137 1384 1165 1430 1215 1430 c 2
795 1430 m 2
 800 1430 l 2
 847 1430 866 1383 827 1300 c 2
 256 80 l 2
 222 7 195 -30 148 -30 c 2
 143 -30 l 2
 96 -30 82 27 116 100 c 2
 687 1320 l 2
 717 1384 748 1430 795 1430 c 2
EndSplineSet
EndChar

StartChar: slash
Encoding: 47 47 78
Width: 840
VWidth: 2048
Flags: HMW
LayerCount: 2
Fore
SplineSet
919 1270 m 2
 84 -20 l 2
 45 -80 7 -130 -40 -130 c 2
 -50 -130 l 2
 -107 -130 -99 -55 -44 30 c 2
 791 1320 l 2
 830 1380 869 1430 915 1430 c 2
 925 1430 l 2
 982 1430 974 1355 919 1270 c 2
EndSplineSet
EndChar

StartChar: percent
Encoding: 37 37 79
Width: 1755
VWidth: 2048
Flags: HMW
LayerCount: 2
Fore
SplineSet
230 1083 m 262
 238 1118 l 262
 282 1308 469 1435 646 1435 c 260
 823 1435 962 1308 918 1118 c 262
 910 1083 l 262
 866 893 669 765 492 765 c 260
 315 765 186 893 230 1083 c 262
400 1063 m 262
 375 953 435 895 522 895 c 260
 609 895 705 953 730 1063 c 262
 748 1138 l 262
 773 1248 703 1305 616 1305 c 260
 529 1305 443 1248 418 1138 c 262
 400 1063 l 262
920 283 m 258
 928 318 l 258
 972 508 1160 635 1337 635 c 256
 1514 635 1652 508 1608 318 c 258
 1600 283 l 258
 1556 93 1359 -35 1182 -35 c 256
 1005 -35 876 93 920 283 c 258
1091 263 m 258
 1066 153 1125 95 1212 95 c 256
 1299 95 1396 153 1421 263 c 258
 1438 338 l 258
 1463 448 1394 505 1307 505 c 256
 1220 505 1133 448 1108 338 c 258
 1091 263 l 258
1496 1290 m 2
 477 80 l 2
 410 0 385 -30 338 -30 c 2
 333 -30 l 2
 276 -30 275 30 342 110 c 2
 1361 1320 l 2
 1428 1400 1453 1430 1500 1430 c 2
 1505 1430 l 2
 1582 1430 1563 1370 1496 1290 c 2
EndSplineSet
EndChar

StartChar: hyphen
Encoding: 45 45 80
Width: 570
VWidth: 1920
Flags: HMW
LayerCount: 2
Fore
SplineSet
32 605 m 14
 32 620 l 22
 32 657 65 690 132 690 c 14
 482 690 l 22
 549 690 582 657 582 620 c 14
 582 605 l 22
 582 568 549 535 482 535 c 14
 132 535 l 22
 65 535 32 568 32 605 c 14
EndSplineSet
EndChar

StartChar: underscore
Encoding: 95 95 81
Width: 900
VWidth: 1920
Flags: HMW
LayerCount: 2
Fore
SplineSet
-170 -85 m 14
 -170 -70 l 22
 -170 -33 -137 0 -70 0 c 14
 690 0 l 22
 757 0 790 -33 790 -70 c 14
 790 -85 l 22
 790 -122 757 -155 690 -155 c 14
 -70 -155 l 22
 -137 -155 -170 -122 -170 -85 c 14
EndSplineSet
EndChar

StartChar: plus
Encoding: 43 43 82
Width: 1040
VWidth: 1920
Flags: HMW
LayerCount: 2
Fore
SplineSet
53 685 m 14
 57 700 l 22
 66 737 106 770 173 770 c 14
 983 770 l 22
 1050 770 1076 737 1067 700 c 14
 1063 685 l 22
 1054 648 1014 615 947 615 c 14
 137 615 l 22
 70 615 44 648 53 685 c 14
677 1220 m 14
 687 1220 l 22
 724 1220 749 1187 734 1120 c 14
 530 240 l 22
 515 173 474 140 437 140 c 14
 427 140 l 22
 390 140 365 173 380 240 c 14
 584 1120 l 22
 599 1187 640 1220 677 1220 c 14
EndSplineSet
EndChar

StartChar: equal
Encoding: 61 61 83
Width: 1180
VWidth: 1920
Flags: HMW
LayerCount: 2
Fore
SplineSet
73 305 m 10
 73 320 l 18
 73 357 106 390 173 390 c 10
 913 390 l 18
 980 390 1013 357 1013 320 c 10
 1013 305 l 18
 1013 268 980 235 913 235 c 10
 173 235 l 18
 106 235 73 268 73 305 c 10
159 675 m 14
 159 690 l 22
 159 727 192 760 259 760 c 14
 999 760 l 22
 1066 760 1099 727 1099 690 c 14
 1099 675 l 22
 1099 638 1066 605 999 605 c 14
 259 605 l 22
 192 605 159 638 159 675 c 14
EndSplineSet
EndChar

StartChar: less
Encoding: 60 60 84
Width: 1010
VWidth: 1920
Flags: HMW
LayerCount: 2
Fore
SplineSet
689 126 m 2
 129 514 l 2
 91 540 78 558 87 595 c 2
 90 605 l 2
 99 642 118 660 168 686 c 2
 908 1074 l 2
 975 1109 1014 1057 1003 1010 c 6
 1001 1000 l 6
 990 953 935 918 866 884 c 2
 278 590 l 257
 731 296 l 2
 784 262 827 237 816 190 c 2
 814 180 l 2
 803 133 740 91 689 126 c 2
EndSplineSet
EndChar

StartChar: greater
Encoding: 62 62 85
Width: 1010
VWidth: 1920
Flags: HMW
LayerCount: 2
Fore
SplineSet
358 1074 m 2
 918 686 l 2
 956 660 969 642 960 605 c 2
 957 595 l 2
 948 558 929 540 879 514 c 2
 139 126 l 2
 72 91 33 153 44 200 c 6
 46 210 l 6
 57 257 112 282 181 316 c 6
 770 610 l 261
 316 904 l 6
 263 938 220 963 231 1010 c 6
 233 1020 l 6
 244 1067 307 1109 358 1074 c 2
EndSplineSet
EndChar

StartChar: backslash
Encoding: 92 92 86
Width: 840
VWidth: 2048
Flags: HMW
LayerCount: 2
Fore
SplineSet
667 -18 m 2
 682 -103 656 -178 599 -178 c 2
 589 -178 l 2
 543 -178 526 -128 515 -68 c 2
 276 1222 l 2
 261 1307 287 1382 344 1382 c 2
 354 1382 l 2
 401 1382 417 1332 428 1272 c 2
 667 -18 l 2
EndSplineSet
EndChar

StartChar: bracketleft
Encoding: 91 91 87
Width: 550
VWidth: 1920
Flags: HMW
LayerCount: 2
Fore
SplineSet
475 1450 m 257
 92 -210 l 257
 242 -210 l 6
 319 -210 346 -233 335 -280 c 6
 333 -290 l 6
 322 -337 284 -360 207 -360 c 6
 27 -360 l 2
 -80 -360 -121 -307 -96 -200 c 2
 282 1440 l 2
 307 1547 372 1600 479 1600 c 2
 659 1600 l 6
 736 1600 764 1577 753 1530 c 6
 751 1520 l 6
 740 1473 702 1450 625 1450 c 6
 475 1450 l 257
EndSplineSet
EndChar

StartChar: braceleft
Encoding: 123 123 88
Width: 575
VWidth: 2048
Flags: HMW
LayerCount: 2
Fore
SplineSet
330 1278 m 258
 382 1505 466 1600 644 1600 c 0
 721 1600 749 1577 743 1550 c 2
 741 1540 l 2
 732 1503 679 1510 640 1500 c 0
 598 1489 545 1452 505 1278 c 258
 431 956 l 258
 388 771 336 668 169 620 c 257
 314 572 319 469 276 284 c 258
 201 -38 l 258
 161 -212 198 -249 234 -260 c 0
 269 -270 325 -263 316 -300 c 2
 313 -310 l 2
 307 -337 269 -360 192 -360 c 0
 14 -360 -26 -265 26 -38 c 258
 101 284 l 258
 141 457 121 504 57 542 c 0
 26 560 13 579 22 616 c 2
 24 624 l 2
 33 661 54 681 91 697 c 0
 178 734 216 782 256 956 c 258
 330 1278 l 258
EndSplineSet
EndChar

StartChar: bracketright
Encoding: 93 93 89
Width: 550
VWidth: 1920
Flags: HMW
LayerCount: 2
Fore
SplineSet
122 -210 m 257
 505 1450 l 257
 355 1450 l 6
 278 1450 250 1473 261 1520 c 6
 263 1530 l 6
 274 1577 312 1600 389 1600 c 6
 569 1600 l 2
 676 1600 717 1547 692 1440 c 2
 314 -200 l 2
 289 -307 224 -360 117 -360 c 2
 -63 -360 l 6
 -140 -360 -168 -337 -157 -290 c 6
 -155 -280 l 6
 -144 -233 -105 -210 -28 -210 c 6
 122 -210 l 257
EndSplineSet
EndChar

StartChar: braceright
Encoding: 125 125 90
Width: 575
VWidth: 2048
Flags: HMW
LayerCount: 2
Fore
SplineSet
291 -38 m 258
 239 -265 155 -360 -23 -360 c 0
 -100 -360 -128 -337 -122 -310 c 2
 -119 -300 l 2
 -110 -263 -58 -270 -19 -260 c 0
 23 -249 76 -212 116 -38 c 258
 191 284 l 258
 234 469 285 572 452 620 c 257
 307 668 303 771 346 956 c 258
 420 1278 l 258
 460 1452 423 1489 387 1500 c 0
 352 1510 297 1503 306 1540 c 2
 308 1550 l 2
 314 1577 352 1600 429 1600 c 0
 607 1600 647 1505 595 1278 c 258
 521 956 l 258
 481 783 500 736 564 698 c 0
 595 680 608 661 599 624 c 2
 597 616 l 2
 588 579 567 559 530 543 c 0
 443 506 406 458 366 284 c 258
 291 -38 l 258
EndSplineSet
EndChar

StartChar: bar
Encoding: 124 124 91
Width: 415
VWidth: 1920
Flags: HMW
LayerCount: 2
Fore
SplineSet
459 1630 m 2
 469 1630 l 2
 516 1630 537 1597 519 1520 c 2
 103 -280 l 2
 85 -357 50 -390 3 -390 c 2
 -7 -390 l 2
 -54 -390 -75 -357 -57 -280 c 2
 359 1520 l 2
 377 1597 412 1630 459 1630 c 2
EndSplineSet
EndChar

StartChar: asciitilde
Encoding: 126 126 92
Width: 1330
VWidth: 2048
Flags: HMW
LayerCount: 2
Fore
SplineSet
454 659 m 256
 362 659 296 590 269 517 c 0
 241 442 211 408 154 408 c 2
 144 408 l 2
 97 408 83 441 109 517 c 0
 155 655 288 809 459 809 c 260
 698 809 764 552 916 552 c 256
 1008 552 1072 611 1101 693 c 0
 1129 769 1154 803 1211 803 c 2
 1220 803 l 2
 1267 803 1284 770 1260 693 c 0
 1218 555 1082 402 912 402 c 256
 673 402 606 659 454 659 c 256
EndSplineSet
EndChar

StartChar: asciicircum
Encoding: 94 94 93
Width: 820
VWidth: 1920
Flags: HMW
LayerCount: 2
Fore
SplineSet
565 1191 m 257
 328 810 l 2
 292 752 259 700 212 700 c 2
 202 700 l 2
 145 700 135 772 189 855 c 2
 491 1320 l 2
 535 1388 566 1420 613 1420 c 2
 623 1420 l 2
 670 1420 687 1388 699 1320 c 2
 785 855 l 2
 801 772 764 700 702 700 c 2
 692 700 l 2
 642 700 636 752 626 810 c 2
 565 1191 l 257
EndSplineSet
EndChar

StartChar: figuredash
Encoding: 8210 8210 108
Width: 1150
VWidth: 2048
Flags: HMW
LayerCount: 2
Fore
SplineSet
30 605 m 10
 30 620 l 18
 30 657 63 690 130 690 c 10
 1060 690 l 18
 1127 690 1160 657 1160 620 c 10
 1160 605 l 18
 1160 568 1127 535 1060 535 c 10
 130 535 l 18
 63 535 30 568 30 605 c 10
EndSplineSet
EndChar

StartChar: endash
Encoding: 8211 8211 109
Width: 1100
VWidth: 2048
Flags: HMW
LayerCount: 2
Fore
SplineSet
30 605 m 14
 30 620 l 22
 30 657 63 690 130 690 c 14
 1010 690 l 22
 1077 690 1110 657 1110 620 c 14
 1110 605 l 22
 1110 568 1077 535 1010 535 c 14
 130 535 l 22
 63 535 30 568 30 605 c 14
EndSplineSet
EndChar

StartChar: emdash
Encoding: 8212 8212 110
Width: 2200
VWidth: 2048
Flags: HMW
LayerCount: 2
Fore
SplineSet
30 605 m 14
 30 620 l 22
 30 657 63 690 130 690 c 14
 2110 690 l 22
 2177 690 2210 657 2210 620 c 14
 2210 605 l 22
 2210 568 2177 535 2110 535 c 14
 130 535 l 22
 63 535 30 568 30 605 c 14
EndSplineSet
EndChar

StartChar: uni2015
Encoding: 8213 8213 111
Width: 2360
VWidth: 2048
Flags: HMW
LayerCount: 2
Fore
SplineSet
30 605 m 14
 30 620 l 22
 30 657 63 690 130 690 c 14
 2270 690 l 22
 2337 690 2370 657 2370 620 c 14
 2370 605 l 22
 2370 568 2337 535 2270 535 c 14
 130 535 l 22
 63 535 30 568 30 605 c 14
EndSplineSet
EndChar

StartChar: quoteleft
Encoding: 8216 8216 114
Width: 540
VWidth: 1920
Flags: HMW
LayerCount: 2
Fore
SplineSet
595 1471 m 2
 596 1471 l 2
 613 1471 617.958007812 1455.66601562 592 1420 c 2
 469 1251 l 257
 471 1251 l 2
 489.520507812 1251 540 1219.59570312 540 1161 c 2
 540 1151 l 2
 540 1084 483 1011 406 1011 c 2
 396 1011 l 2
 319 1011 270 1064 270 1131 c 2
 270 1141 l 2
 270 1188 311.594726562 1242.75390625 355 1279 c 2
 452 1360 l 2
 547.923828125 1440.1015625 577 1471 595 1471 c 2
EndSplineSet
EndChar

StartChar: quotereversed
Encoding: 8219 8219 117
Width: 540
VWidth: 1920
Flags: HMW
LayerCount: 2
Fore
SplineSet
484 990 m 2
 466 990 455 1016 396 1110 c 2
 352 1180 l 2
 325 1223 309 1273 320 1320 c 2
 322 1330 l 2
 337 1397 399 1450 476 1450 c 2
 486 1450 l 2
 563 1450 597 1397 582 1330 c 2
 580 1320 l 2
 566 1261 513 1210 464 1210 c 2
 454 1210 l 257
 503 1041 l 2
 514 1002 502 990 485 990 c 2
 484 990 l 2
EndSplineSet
EndChar

StartChar: bullet
Encoding: 8226 8226 120
Width: 690
VWidth: 2048
Flags: HMW
LayerCount: 2
Fore
SplineSet
210 718 m 262
 210 773 l 262
 210 893 303 950 400 950 c 260
 497 950 600 893 600 773 c 262
 600 718 l 262
 600 598 497 540 400 540 c 260
 303 540 210 598 210 718 c 262
EndSplineSet
EndChar

StartChar: dagger
Encoding: 8224 8224 124
Width: 1130
VWidth: 1920
Flags: HMW
LayerCount: 2
Fore
SplineSet
146 965 m 14
 146 980 l 22
 146 1027 179 1050 256 1050 c 14
 1086 1050 l 22
 1163 1050 1196 1027 1196 980 c 14
 1196 965 l 22
 1196 918 1163 895 1086 895 c 14
 256 895 l 22
 179 895 146 918 146 965 c 14
765 1430 m 10
 785 1430 l 18
 832 1430 863 1397 845 1320 c 10
 558 80 l 18
 540 3 495 -30 448 -30 c 10
 428 -30 l 18
 381 -30 350 3 368 80 c 10
 655 1320 l 18
 673 1397 718 1430 765 1430 c 10
EndSplineSet
EndChar

StartChar: daggerdbl
Encoding: 8225 8225 125
Width: 1130
VWidth: 1920
Flags: HMW
LayerCount: 2
Fore
SplineSet
-62 70 m 10
 -62 85 l 18
 -62 132 -29 155 48 155 c 10
 878 155 l 18
 955 155 988 132 988 85 c 10
 988 70 l 18
 988 23 955 0 878 0 c 10
 48 0 l 18
 -29 0 -62 23 -62 70 c 10
146 965 m 14
 146 980 l 22
 146 1027 179 1050 256 1050 c 14
 1086 1050 l 22
 1163 1050 1196 1027 1196 980 c 14
 1196 965 l 22
 1196 918 1163 895 1086 895 c 14
 256 895 l 22
 179 895 146 918 146 965 c 14
765 1430 m 10
 785 1430 l 18
 832 1430 863 1397 845 1320 c 10
 475 -280 l 18
 457 -357 412 -390 365 -390 c 10
 345 -390 l 18
 298 -390 267 -357 285 -280 c 10
 655 1320 l 18
 673 1397 718 1430 765 1430 c 10
EndSplineSet
EndChar

StartChar: perthousand
Encoding: 8240 8240 126
Width: 2555
VWidth: 2048
Flags: HMW
LayerCount: 2
Fore
SplineSet
1720 283 m 262
 1728 318 l 262
 1772 508 1960 635 2137 635 c 260
 2314 635 2452 508 2408 318 c 262
 2400 283 l 262
 2356 93 2159 -35 1982 -35 c 260
 1805 -35 1676 93 1720 283 c 262
1891 263 m 262
 1866 153 1925 95 2012 95 c 260
 2099 95 2196 153 2221 263 c 262
 2238 338 l 262
 2263 448 2194 505 2107 505 c 260
 2020 505 1933 448 1908 338 c 262
 1891 263 l 262
230 1083 m 262
 238 1118 l 262
 282 1308 469 1435 646 1435 c 260
 823 1435 962 1308 918 1118 c 262
 910 1083 l 262
 866 893 669 765 492 765 c 260
 315 765 186 893 230 1083 c 262
400 1063 m 262
 375 953 435 895 522 895 c 260
 609 895 705 953 730 1063 c 262
 748 1138 l 262
 773 1248 703 1305 616 1305 c 260
 529 1305 443 1248 418 1138 c 262
 400 1063 l 262
920 283 m 262
 928 318 l 262
 972 508 1160 635 1337 635 c 260
 1514 635 1652 508 1608 318 c 262
 1600 283 l 262
 1556 93 1359 -35 1182 -35 c 260
 1005 -35 876 93 920 283 c 262
1091 263 m 262
 1066 153 1125 95 1212 95 c 260
 1299 95 1396 153 1421 263 c 262
 1438 338 l 262
 1463 448 1394 505 1307 505 c 260
 1220 505 1133 448 1108 338 c 262
 1091 263 l 262
1496 1290 m 6
 477 80 l 6
 410 0 385 -30 338 -30 c 6
 333 -30 l 6
 276 -30 275 30 342 110 c 6
 1361 1320 l 6
 1428 1400 1453 1430 1500 1430 c 6
 1505 1430 l 6
 1582 1430 1563 1370 1496 1290 c 6
EndSplineSet
EndChar

StartChar: uni2031
Encoding: 8241 8241 127
Width: 3355
VWidth: 2048
Flags: HMW
LayerCount: 2
Fore
SplineSet
2520 283 m 262
 2528 318 l 262
 2572 508 2760 635 2937 635 c 260
 3114 635 3252 508 3208 318 c 262
 3200 283 l 262
 3156 93 2959 -35 2782 -35 c 260
 2605 -35 2476 93 2520 283 c 262
2691 263 m 262
 2666 153 2725 95 2812 95 c 260
 2899 95 2996 153 3021 263 c 262
 3038 338 l 262
 3063 448 2994 505 2907 505 c 260
 2820 505 2733 448 2708 338 c 262
 2691 263 l 262
1720 283 m 258
 1728 318 l 258
 1772 508 1960 635 2137 635 c 256
 2314 635 2452 508 2408 318 c 258
 2400 283 l 258
 2356 93 2159 -35 1982 -35 c 256
 1805 -35 1676 93 1720 283 c 258
1891 263 m 258
 1866 153 1925 95 2012 95 c 256
 2099 95 2196 153 2221 263 c 258
 2238 338 l 258
 2263 448 2194 505 2107 505 c 256
 2020 505 1933 448 1908 338 c 258
 1891 263 l 258
230 1083 m 258
 238 1118 l 258
 282 1308 469 1435 646 1435 c 256
 823 1435 962 1308 918 1118 c 258
 910 1083 l 258
 866 893 669 765 492 765 c 256
 315 765 186 893 230 1083 c 258
400 1063 m 258
 375 953 435 895 522 895 c 256
 609 895 705 953 730 1063 c 258
 748 1138 l 258
 773 1248 703 1305 616 1305 c 256
 529 1305 443 1248 418 1138 c 258
 400 1063 l 258
920 283 m 258
 928 318 l 258
 972 508 1160 635 1337 635 c 256
 1514 635 1652 508 1608 318 c 258
 1600 283 l 258
 1556 93 1359 -35 1182 -35 c 256
 1005 -35 876 93 920 283 c 258
1091 263 m 258
 1066 153 1125 95 1212 95 c 256
 1299 95 1396 153 1421 263 c 258
 1438 338 l 258
 1463 448 1394 505 1307 505 c 256
 1220 505 1133 448 1108 338 c 258
 1091 263 l 258
1496 1290 m 2
 477 80 l 2
 410 0 385 -30 338 -30 c 2
 333 -30 l 2
 276 -30 275 30 342 110 c 2
 1361 1320 l 2
 1428 1400 1453 1430 1500 1430 c 2
 1505 1430 l 2
 1582 1430 1563 1370 1496 1290 c 2
EndSplineSet
EndChar

StartChar: fraction
Encoding: 8260 8260 128
Width: 930
VWidth: 1920
Flags: HMW
LayerCount: 2
Fore
SplineSet
1007 1302 m 10
 1017 1292 l 18
 1044 1269 1017 1225 969 1168 c 14
 160 212 l 18
 112 155 55 125 28 148 c 10
 17 158 l 18
 -10 181 14 233 55 282 c 10
 864 1238 l 22
 912 1295 980 1325 1007 1302 c 10
EndSplineSet
EndChar

StartChar: uni2074
Encoding: 8308 8308 129
Width: 676
VWidth: 1920
Flags: HMW
LayerCount: 2
Fore
SplineSet
752 892 m 2
 750 884 l 2
 740 840 705 828 651 828 c 2
 603 828 l 257
 575 706 l 2
 558 632 531 610 487 610 c 2
 465 610 l 2
 421 610 404 632 421 706 c 2
 449 828 l 257
 187 828 l 2
 93 828 86 850 94 884 c 2
 96 894 l 2
 104 928 160 989 240 1066 c 2
 560 1376 l 6
 651 1464 682 1490 716 1490 c 2
 720 1490 l 2
 754 1490 749 1458 732 1384 c 2
 633 958 l 257
 681 958 l 2
 735 958 762 936 752 892 c 2
485 958 m 257
 547 1226 l 257
 264 958 l 257
 485 958 l 257
EndSplineSet
EndChar

StartChar: uni2073
Encoding: 8307 8307 130
Width: 721
VWidth: 1920
Flags: HMW
LayerCount: 2
Fore
SplineSet
225 904 m 2
 227 904 l 2
 271 904 297 882 285 828 c 2
 285 826 l 2
 273 774 322 739 407 739 c 0
 497 739 568 783 581 841 c 2
 594 898 l 2
 610 966 548 1006 462 1006 c 2
 454 1006 l 2
 410 1006 383 1028 391 1062 c 2
 395 1080 l 2
 403 1114 430 1136 474 1136 c 2
 480 1136 l 2
 580 1136 627 1182 641 1244 c 2
 650 1283 l 2
 661 1329 629 1361 549 1361 c 0
 479 1361 416 1331 400 1261 c 2
 397 1247 l 2
 387 1203 347 1171 303 1171 c 2
 297 1171 l 2
 253 1171 239 1203 249 1247 c 2
 252 1261 l 2
 284 1401 424 1491 582 1491 c 0
 740 1491 839 1418 807 1280 c 2
 803 1265 l 2
 768 1115 617 1062 463 1062 c 1
 482 1092 l 1
 636 1092 780 1033 745 883 c 2
 734 838 l 2
 701 694 549 609 371 609 c 0
 220 609 99 689 131 826 c 2
 131 828 l 2
 143 882 181 904 225 904 c 2
EndSplineSet
EndChar

StartChar: uni2072
Encoding: 8306 8306 131
Width: 692
VWidth: 1920
Flags: HMW
LayerCount: 2
Fore
SplineSet
100 693 m 258
 175 1019 614 1089 653 1257 c 258
 659 1284 l 258
 672 1340 631 1368 557 1368 c 256
 475 1368 408 1322 389 1238 c 258
 386 1224 l 2
 376 1180 348 1158 304 1158 c 2
 288 1158 l 2
 244 1158 228 1180 238 1224 c 2
 241 1238 l 258
 279 1402 417 1498 593 1498 c 256
 751 1498 839 1419 807 1281 c 258
 801 1254 l 258
 746 1016 326 928 293 785 c 258
 292 779 l 257
 626 779 l 2
 670 779 707 757 697 713 c 2
 694 703 l 2
 684 659 637 637 593 637 c 2
 93 637 l 2
 89 637 87 639 88 643 c 2
 100 693 l 258
EndSplineSet
EndChar

StartChar: uni2070
Encoding: 8304 8304 132
Width: 770
VWidth: 1920
Flags: HMW
LayerCount: 2
Fore
SplineSet
173 923 m 258
 232 1178 l 258
 277 1373 418 1491 609 1491 c 260
 800 1491 887 1373 842 1178 c 258
 783 923 l 258
 738 727 597 609 406 609 c 260
 215 609 128 727 173 923 c 258
330 935 m 262
 296 786 344 733 434 733 c 260
 524 733 598 786 632 935 c 262
 685 1166 l 262
 719 1315 671 1367 581 1367 c 260
 491 1367 417 1315 383 1166 c 262
 330 935 l 262
EndSplineSet
EndChar

StartChar: uni2075
Encoding: 8309 8309 133
Width: 754
VWidth: 1920
Flags: HMW
LayerCount: 2
Fore
SplineSet
248 874 m 2
 258 874 l 2
 302 874 300 836 314 788 c 0
 324 754 335 726 423 726 c 0
 512 726 577 766 599 862 c 2
 616 937 l 2
 639 1037 604 1086 524 1086 c 0
 482 1086 443 1072 419 1051 c 0
 372 1009 361 985 307 985 c 6
 275 985 l 2
 221 985 227 1018 255 1091 c 2
 356 1357 l 2
 387 1439 419 1463 503 1463 c 2
 771 1463 l 2
 845 1463 853 1446 845 1412 c 2
 844 1408 l 2
 834 1366 809 1333 707 1333 c 2
 494 1333 l 1
 376 1070 l 1
 353 1070 l 1
 403 1144 485 1216 601 1216 c 0
 731 1216 812 1117 766 919 c 2
 757 880 l 2
 714 692 576 602 394 602 c 0
 234 602 170 694 172 788 c 0
 173 841 214 874 248 874 c 2
EndSplineSet
EndChar

StartChar: uni2076
Encoding: 8310 8310 134
Width: 836
VWidth: 1920
Flags: HMW
LayerCount: 2
Fore
SplineSet
546 1054 m 256
 466 1054 346 1015 325 925 c 258
 315 883 l 257
 293 943 l 257
 329 1101 476 1184 600 1184 c 256
 764 1184 863 1068 825 904 c 258
 818 874 l 258
 779 707 628 609 443 609 c 256
 217 609 148 730 198 946 c 258
 242 1136 l 258
 295 1364 445 1491 641 1491 c 256
 819 1491 903 1384 882 1294 c 258
 881 1291 l 2
 875 1267 864 1225 800 1225 c 2
 790 1225 l 2
 736 1225 729 1247 739 1291 c 2
 740 1296 l 258
 747 1326 711 1361 623 1361 c 256
 507 1361 412 1303 373 1133 c 258
 315 883 l 258
 293 789 355 739 467 739 c 256
 586 739 645 792 665 880 c 258
 671 904 l 258
 692 994 650 1054 546 1054 c 256
EndSplineSet
EndChar

StartChar: uni2077
Encoding: 8311 8311 135
Width: 652
VWidth: 1920
Flags: HMW
LayerCount: 2
Fore
SplineSet
805 1364 m 2
 386 716 l 2
 333 635 283 600 239 600 c 6
 235 600 l 6
 191 600 176 646 224 716 c 2
 654 1334 l 257
 334 1334 l 2
 250 1334 233 1356 243 1400 c 2
 244 1404 l 2
 254 1448 281 1470 365 1470 c 2
 767 1470 l 2
 841 1470 846 1428 805 1364 c 2
EndSplineSet
EndChar

StartChar: uni2078
Encoding: 8312 8312 136
Width: 812
VWidth: 1920
Flags: HMW
LayerCount: 2
Fore
SplineSet
456 736 m 256
 554 736 617 777 635 855 c 262
 643 886 l 258
 661 964 616 1006 518 1006 c 256
 420 1006 357 964 339 886 c 258
 331 855 l 258
 313 777 358 736 456 736 c 256
548 1136 m 256
 628 1136 677 1163 693 1234 c 258
 700 1263 l 258
 715 1329 680 1364 601 1364 c 256
 522 1364 471 1329 456 1263 c 258
 449 1234 l 258
 433 1163 468 1136 548 1136 c 256
556 1086 m 257
 724 1086 824 1004 792 865 c 258
 785 838 l 258
 751 690 632 609 427 609 c 256
 222 609 139 690 173 838 c 258
 180 865 l 258
 212 1004 350 1086 518 1086 c 257
 514 1062 l 257
 355 1065 271 1132 302 1265 c 258
 306 1280 l 258
 337 1413 469 1491 630 1491 c 256
 791 1491 889 1413 858 1280 c 258
 854 1265 l 258
 823 1132 709 1065 548 1062 c 257
 556 1086 l 257
EndSplineSet
EndChar

StartChar: uni2079
Encoding: 8313 8313 137
Width: 826
VWidth: 1920
Flags: HMW
LayerCount: 2
Fore
SplineSet
524 1046 m 256
 604 1046 725 1085 746 1175 c 258
 756 1217 l 257
 778 1157 l 257
 742 999 594 916 470 916 c 256
 306 916 218 1032 256 1196 c 262
 263 1226 l 262
 302 1393 443 1491 628 1491 c 256
 854 1491 922 1370 872 1154 c 258
 829 964 l 258
 776 736 626 609 430 609 c 256
 252 609 148 716 169 806 c 258
 170 809 l 2
 176 833 187 875 251 875 c 2
 261 875 l 2
 315 875 322 853 312 809 c 2
 311 804 l 258
 304 774 360 739 448 739 c 256
 564 739 659 797 698 967 c 258
 756 1217 l 258
 778 1311 716 1361 604 1361 c 256
 485 1361 436 1308 416 1220 c 262
 410 1196 l 262
 389 1106 420 1046 524 1046 c 256
EndSplineSet
EndChar

StartChar: uni00B9
Encoding: 185 185 138
Width: 514
VWidth: 1920
Flags: HMW
LayerCount: 2
Fore
SplineSet
409 1443 m 0
 430 1455 447 1461 473 1485 c 0
 488 1499 496 1520 523 1520 c 2
 527 1520 l 2
 554 1520 560 1497 554 1470 c 2
 381 720 l 2
 363 643 326 610 279 610 c 6
 278 610 l 6
 231 610 208 643 226 720 c 2
 373 1354 l 2
 386 1411 390 1432 409 1443 c 0
EndSplineSet
EndChar

StartChar: cent
Encoding: 162 162 154
Width: 968
VWidth: 1920
Flags: HMW
LayerCount: 2
Fore
SplineSet
681 1240 m 6
 691 1240 l 6
 708 1240 724 1227 715 1190 c 6
 408 -140 l 6
 399 -177 378 -190 361 -190 c 6
 351 -190 l 6
 334 -190 319 -177 328 -140 c 6
 635 1190 l 6
 644 1227 664 1240 681 1240 c 6
EndSplineSet
Refer: 40 99 N 1 0 0 1 0 0 2
EndChar

StartChar: uni203D
Encoding: 8253 8253 157
Width: 1080
VWidth: 1920
Flags: HMW
LayerCount: 2
Fore
SplineSet
576 1000 m 2
 578 1010 l 2
 596 1087 637 1120 694 1120 c 2
 704 1120 l 2
 761 1120 786 1087 768 1010 c 2
 766 1000 l 2
 753 943 744 916 726 870 c 2
 551 410 l 2
 548 403 543 380 533 380 c 2
 528 380 l 2
 501 380 500 424 506 470 c 2
 553 870 l 2
 559 916 563 943 576 1000 c 2
474 -30 m 6
 464 -30 l 6
 387 -30 334 33 334 100 c 6
 334 110 l 6
 334 177 387 240 464 240 c 6
 474 240 l 6
 551 240 604 177 604 110 c 6
 604 100 l 6
 604 33 551 -30 474 -30 c 6
533 380 m 2
 528 380 l 2
 521 380 523 403 523 409 c 0
 554 731 858 748 921 1023 c 258
 932 1068 l 258
 960 1188 913 1285 756 1285 c 256
 586 1285 479 1185 448 1052 c 258
 443 1032 l 2
 425 955 380 922 333 922 c 2
 323 922 l 2
 276 922 245 955 263 1032 c 2
 268 1052 l 258
 320 1276 523 1435 800 1435 c 256
 1047 1435 1184 1293 1133 1073 c 258
 1127 1048 l 258
 1059 755 774 737 616 468 c 0
 590 424 560 380 533 380 c 2
EndSplineSet
EndChar

StartChar: ordfeminine
Encoding: 170 170 159
Width: 847
VWidth: 1920
Flags: HMW
LayerCount: 2
Fore
SplineSet
322 854 m 0
 307 790 333 739 421 739 c 256
 505 739 624 806 658 952 c 257
 706 902 l 257
 673 759 538 609 347 609 c 256
 188 609 112 699 143 834 c 0
 178 985 292 1080 537 1119 c 256
 667 1139 706 1159 725 1242 c 257
 737 1122 l 257
 722 1059 656 1027 538 1004 c 256
 394 977 336 914 322 854 c 0
635 852 m 258
 729 1262 l 258
 743 1322 708 1359 613 1359 c 256
 514 1359 476 1321 453 1276 c 0
 424 1221 391 1197 354 1197 c 2
 343 1197 l 2
 306 1197 278 1232 312 1296 c 4
 360 1389 446 1489 662 1489 c 256
 872 1489 920 1395 872 1187 c 258
 795 852 l 258
 778 778 777 752 787 701 c 0
 798 646 743 624 706 624 c 2
 702 624 l 2
 665 624 636 646 624 700 c 0
 615 742 618 777 635 852 c 258
EndSplineSet
EndChar

StartChar: exclamdown
Encoding: 161 161 160
Width: 540
VWidth: 1920
Flags: HMW
LayerCount: 2
Fore
SplineSet
365 1085 m 6
 375 1085 l 6
 452 1085 505 1022 505 955 c 6
 505 945 l 6
 505 878 452 815 375 815 c 6
 365 815 l 6
 288 815 235 878 235 945 c 6
 235 955 l 6
 235 1022 288 1085 365 1085 c 6
252 25 m 2
 173 -315 l 2
 155 -392 105 -425 58 -425 c 2
 48 -425 l 2
 1 -425 -35 -392 -17 -315 c 2
 62 25 l 2
 73 72 93 149 110 195 c 2
 243 575 l 2
 263 631 282 645 299 645 c 2
 301 645 l 2
 318 645 331 631 325 575 c 2
 282 195 l 2
 277 149 263 72 252 25 c 2
EndSplineSet
EndChar

StartChar: AE
Encoding: 198 198 161
Width: 2200
VWidth: 1920
Flags: HMW
LayerCount: 2
Fore
SplineSet
490 570 m 261
 1120 570 l 257
 1120 420 l 257
 450 420 l 257
 490 570 l 261
1438 1400 m 1
 182 60 l 2
 114 -12 75 -30 38 -30 c 2
 33 -30 l 2
 -24 -30 -48 39 38 130 c 2
 1129 1290 l 2
 1197 1362 1251 1400 1338 1400 c 2
 1438 1400 l 1
EndSplineSet
Refer: 16 69 N 1 0 0 1 920 0 2
EndChar

StartChar: questiondown
Encoding: 191 191 162
Width: 1080
VWidth: 1920
Flags: HMW
LayerCount: 2
Fore
SplineSet
685 1080 m 6
 695 1080 l 6
 772 1080 825 1017 825 950 c 6
 825 940 l 6
 825 873 772 810 695 810 c 6
 685 810 l 6
 608 810 555 873 555 940 c 6
 555 950 l 6
 555 1017 608 1080 685 1080 c 6
635 680 m 2
 637 680 l 2
 664 680 684 652 676 611 c 0
 615 308 293 296 231 27 c 258
 221 -18 l 258
 193 -138 240 -235 397 -235 c 256
 567 -235 674 -135 705 -2 c 258
 709 18 l 2
 727 95 773 128 820 128 c 2
 830 128 l 2
 877 128 907 95 889 18 c 2
 885 -2 l 258
 833 -226 629 -385 352 -385 c 256
 105 -385 -31 -243 20 -23 c 258
 25 2 l 258
 97 315 409 321 554 612 c 0
 573 651 608 680 635 680 c 2
EndSplineSet
EndChar

StartChar: yen
Encoding: 165 165 163
Width: 1239
VWidth: 1920
Flags: HMW
LayerCount: 2
Fore
SplineSet
136 285 m 14
 160 390 l 22
 162 397 165 400 172 400 c 14
 1052 400 l 22
 1059 400 1062 397 1060 390 c 14
 1036 285 l 22
 1034 278 1030 275 1023 275 c 14
 143 275 l 22
 136 275 134 278 136 285 c 14
198 555 m 14
 222 660 l 22
 224 667 228 670 235 670 c 14
 1115 670 l 22
 1122 670 1124 667 1122 660 c 14
 1098 555 l 22
 1096 548 1093 545 1086 545 c 14
 206 545 l 22
 199 545 196 548 198 555 c 14
EndSplineSet
Refer: 36 89 N 1 0 0 1 0 0 2
EndChar

StartChar: gravecomb
Encoding: 768 768 164
Width: 0
Flags: HMW
AnchorPoint: "top" -452 1000 mark 0
LayerCount: 2
Fore
SplineSet
-389 1084 m 6
 -394 1084 l 6
 -421 1084 -443 1106 -487 1157 c 6
 -593 1280 l 6
 -634 1327 -561 1430 -494 1430 c 6
 -489 1430 l 6
 -442 1430 -414 1412 -399 1359 c 6
 -354 1194 l 6
 -329 1130 -362 1084 -389 1084 c 6
EndSplineSet
EndChar

StartChar: acutecomb
Encoding: 769 769 165
Width: 0
Flags: HMW
AnchorPoint: "top" -437 1000 mark 0
LayerCount: 2
Fore
SplineSet
-464 1084 m 6
 -491 1084 -502 1130 -447 1194 c 6
 -326 1359 l 6
 -287 1412 -251 1430 -204 1430 c 6
 -199 1430 l 6
 -132 1430 -105 1327 -168 1280 c 6
 -332 1157 l 6
 -400 1106 -432 1084 -459 1084 c 6
 -464 1084 l 6
EndSplineSet
EndChar

StartChar: uni0302
Encoding: 770 770 166
Width: 0
VWidth: 1920
Flags: HMW
AnchorPoint: "top" -448 1000 mark 0
LayerCount: 2
Fore
SplineSet
-382 1291 m 261
 -498 1180 l 6
 -547 1132 -601 1070 -648 1070 c 6
 -653 1070 l 6
 -700 1070 -687 1124 -638 1180 c 6
 -515 1320 l 6
 -470 1370 -432 1430 -355 1430 c 6
 -345 1430 l 6
 -268 1430 -258 1368 -235 1320 c 6
 -168 1180 l 6
 -143 1128 -151 1070 -203 1070 c 6
 -208 1070 l 6
 -258 1070 -279 1136 -308 1180 c 6
 -382 1291 l 261
EndSplineSet
EndChar

StartChar: tildecomb
Encoding: 771 771 167
Width: 0
Flags: HMW
AnchorPoint: "top" -467 1000 mark 0
LayerCount: 2
Fore
SplineSet
-520 1289 m 256
 -552 1289 -571 1269 -580 1257 c 0
 -626 1191 -641 1178 -668 1178 c 6
 -678 1178 l 2
 -725 1178 -729 1213 -693 1287 c 0
 -655 1365 -579 1429 -488 1429 c 256
 -359 1429 -348 1322 -246 1322 c 256
 -224 1322 -208 1334 -198 1343 c 0
 -145 1390 -145 1433 -98 1433 c 6
 -89 1433 l 2
 -42 1433 -38 1397 -75 1323 c 0
 -113 1245 -188 1182 -278 1182 c 256
 -407 1182 -418 1289 -520 1289 c 256
EndSplineSet
EndChar

StartChar: uni0304
Encoding: 772 772 168
Width: 0
VWidth: 1920
Flags: HMW
AnchorPoint: "top" -560 1000 mark 0
LayerCount: 2
Fore
SplineSet
-840 1255 m 14
 -840 1270 l 22
 -840 1307 -807 1330 -740 1330 c 14
 -340 1330 l 22
 -273 1330 -240 1307 -240 1270 c 14
 -240 1255 l 22
 -240 1218 -273 1195 -340 1195 c 14
 -740 1195 l 22
 -807 1195 -840 1218 -840 1255 c 14
EndSplineSet
EndChar

StartChar: uni0306
Encoding: 774 774 169
Width: 0
VWidth: 1920
Flags: HMW
AnchorPoint: "top" -560 1000 mark 0
LayerCount: 2
Fore
SplineSet
-387 1305 m 4
 -297 1305 -239 1339 -210 1377 c 4
 -171 1428 -146 1468 -99 1468 c 6
 -94 1468 l 6
 -47 1468 -17 1428 -67 1354 c 0
 -130 1262 -206 1175 -409 1175 c 0
 -612 1175 -649 1263 -667 1357 c 0
 -681 1429 -651 1468 -604 1468 c 6
 -599 1468 l 6
 -552 1468 -546 1429 -531 1375 c 4
 -520 1335 -475 1305 -387 1305 c 4
EndSplineSet
EndChar

StartChar: uni0307
Encoding: 775 775 170
Width: 0
Flags: HMW
AnchorPoint: "top" -398 1000 mark 0
LayerCount: 2
Fore
SplineSet
-296 1187 m 6
 -304 1187 l 6
 -366 1187 -408 1237 -408 1291 c 6
 -408 1299 l 6
 -408 1353 -366 1403 -304 1403 c 6
 -296 1403 l 6
 -234 1403 -192 1353 -192 1299 c 6
 -192 1291 l 6
 -192 1237 -234 1187 -296 1187 c 6
EndSplineSet
EndChar

StartChar: uni0308
Encoding: 776 776 171
Width: 0
Flags: HMW
AnchorPoint: "top" -628 1000 mark 0
LayerCount: 2
Fore
SplineSet
-726 1187 m 2
 -734 1187 l 2
 -796 1187 -838 1237 -838 1291 c 2
 -838 1299 l 2
 -838 1353 -796 1403 -734 1403 c 2
 -726 1403 l 2
 -664 1403 -622 1353 -622 1299 c 2
 -622 1291 l 2
 -622 1237 -664 1187 -726 1187 c 2
-376 1187 m 2
 -384 1187 l 2
 -446 1187 -488 1237 -488 1291 c 2
 -488 1299 l 2
 -488 1353 -446 1403 -384 1403 c 2
 -376 1403 l 2
 -314 1403 -272 1353 -272 1299 c 2
 -272 1291 l 2
 -272 1237 -314 1187 -376 1187 c 2
EndSplineSet
EndChar

StartChar: uni030A
Encoding: 778 778 172
Width: 0
Flags: HMW
AnchorPoint: "top" -594 1000 mark 0
LayerCount: 2
Fore
SplineSet
-360 1312 m 0
 -360 1208 -450 1122 -554 1122 c 0
 -660 1122 -750 1206 -750 1312 c 0
 -750 1414 -660 1502 -554 1502 c 0
 -448 1502 -360 1420 -360 1312 c 0
-454 1312 m 0
 -454 1368 -500 1407 -554 1407 c 0
 -608 1407 -654 1362 -654 1312 c 0
 -654 1258 -608 1217 -554 1217 c 0
 -502 1217 -454 1262 -454 1312 c 0
EndSplineSet
EndChar

StartChar: uni030B
Encoding: 779 779 173
Width: 0
Flags: HMW
AnchorPoint: "top" -507.132 1000 mark 0
LayerCount: 2
Fore
SplineSet
-314 1084 m 6
 -341 1084 -352 1130 -297 1194 c 6
 -176 1359 l 6
 -137 1412 -101 1430 -54 1430 c 6
 -49 1430 l 6
 18 1430 45 1327 -18 1280 c 6
 -182 1157 l 6
 -250 1106 -282 1084 -309 1084 c 6
 -314 1084 l 6
-644 1084 m 6
 -671 1084 -682 1130 -627 1194 c 6
 -506 1359 l 6
 -467 1412 -431 1430 -384 1430 c 6
 -379 1430 l 6
 -312 1430 -285 1327 -348 1280 c 6
 -512 1157 l 6
 -580 1106 -612 1084 -639 1084 c 6
 -644 1084 l 6
EndSplineSet
EndChar

StartChar: uni030C
Encoding: 780 780 174
Width: 0
Flags: HMW
AnchorPoint: "top" -443 1000 mark 0
LayerCount: 2
Fore
SplineSet
-390 1229 m 257
 -275 1340 l 2
 -226 1388 -171 1450 -124 1450 c 2
 -119 1450 l 2
 -72 1450 -86 1396 -135 1340 c 2
 -257 1200 l 2
 -302 1150 -340 1090 -417 1090 c 2
 -427 1090 l 2
 -504 1090 -514 1152 -537 1200 c 2
 -605 1340 l 2
 -630 1392 -621 1450 -569 1450 c 2
 -564 1450 l 2
 -514 1450 -494 1384 -465 1340 c 2
 -390 1229 l 257
EndSplineSet
EndChar

StartChar: uni030F
Encoding: 783 783 175
Width: 0
Flags: HMW
AnchorPoint: "top" -397 1000 mark 0
LayerCount: 2
Fore
SplineSet
-536 1084 m 2
 -541 1084 l 2
 -568 1084 -590 1106 -634 1157 c 2
 -740 1280 l 2
 -781 1327 -708 1430 -641 1430 c 2
 -636 1430 l 2
 -589 1430 -561 1412 -546 1359 c 2
 -501 1194 l 2
 -476 1130 -509 1084 -536 1084 c 2
-206 1084 m 2
 -211 1084 l 2
 -238 1084 -260 1106 -304 1157 c 2
 -410 1280 l 2
 -451 1327 -378 1430 -311 1430 c 2
 -306 1430 l 2
 -259 1430 -231 1412 -216 1359 c 2
 -171 1194 l 2
 -146 1130 -179 1084 -206 1084 c 2
EndSplineSet
EndChar

StartChar: uni0311
Encoding: 785 785 176
Width: 0
Flags: HMW
AnchorPoint: "top" -493 1000 mark 0
LayerCount: 2
Fore
SplineSet
-423 1305 m 0
 -513 1305 -570 1271 -599 1233 c 0
 -638 1182 -663 1142 -710 1142 c 2
 -715 1142 l 2
 -762 1142 -784 1182 -734 1256 c 0
 -671 1348 -596 1435 -393 1435 c 0
 -190 1435 -153 1347 -135 1253 c 0
 -121 1181 -158 1142 -205 1142 c 2
 -210 1142 l 2
 -257 1142 -264 1181 -279 1235 c 0
 -290 1275 -335 1305 -423 1305 c 0
EndSplineSet
EndChar

StartChar: dotbelowcomb
Encoding: 803 803 177
Width: 0
Flags: HMW
AnchorPoint: "bottom" -551 0 mark 0
LayerCount: 2
Fore
SplineSet
-596 -363 m 6
 -604 -363 l 6
 -666 -363 -708 -313 -708 -259 c 6
 -708 -251 l 6
 -708 -197 -666 -147 -604 -147 c 6
 -596 -147 l 6
 -534 -147 -492 -197 -492 -251 c 6
 -492 -259 l 6
 -492 -313 -534 -363 -596 -363 c 6
EndSplineSet
EndChar

StartChar: uni0326
Encoding: 806 806 178
Width: 0
Flags: HMW
AnchorPoint: "bottom" -561 0 mark 0
LayerCount: 2
Fore
SplineSet
-790 -580 m 6
 -791 -580 l 6
 -808 -580 -812.958007812 -564.666015625 -787 -529 c 6
 -664 -360 l 261
 -666 -360 l 6
 -684.520507812 -360 -735 -328.595703125 -735 -270 c 6
 -735 -260 l 6
 -735 -193 -678 -120 -601 -120 c 6
 -591 -120 l 6
 -514 -120 -465 -173 -465 -240 c 6
 -465 -250 l 6
 -465 -297 -506.594726562 -351.75390625 -550 -388 c 6
 -647 -469 l 6
 -742.923828125 -549.1015625 -772 -580 -790 -580 c 6
EndSplineSet
EndChar

StartChar: uni0327
Encoding: 807 807 179
Width: 1200
Flags: HMW
AnchorPoint: "bottom" -651 0 mark 0
LayerCount: 2
Fore
SplineSet
-868 -500 m 0
 -947 -500 -980 -486 -1010 -471 c 0
 -1056 -447 -1074 -421 -1043 -379 c 2
 -1036 -369 l 2
 -1011 -335 -974 -349 -940 -366 c 0
 -918 -377 -890 -382 -841 -382 c 0
 -747 -382 -697 -364 -685 -312 c 0
 -674 -266 -736 -240 -835 -240 c 0
 -878 -240 -888 -232 -888 -220 c 2
 -888 -216 l 2
 -888 -197 -877 -183 -870 -176 c 2
 -653 60 l 1
 -511 60 l 1
 -732 -172 l 1
 -715 -167 -698 -164 -683 -164 c 0
 -597 -164 -518 -212 -541 -312 c 0
 -571 -440 -714 -500 -868 -500 c 0
EndSplineSet
EndChar

StartChar: uni0328
Encoding: 808 808 180
Width: 1200
Flags: HMW
AnchorPoint: "ogonek" -671 0 mark 0
LayerCount: 2
Fore
SplineSet
-648 -360 m 6
 -650 -370 l 6
 -661 -417 -700 -440 -767 -440 c 6
 -787 -440 l 6
 -955 -440 -1013 -358 -986 -240 c 4
 -959 -122 -808 -2 -631 70 c 5
 -585 0 l 5
 -699 -44 -800 -126 -819 -210 c 4
 -833 -272 -804 -300 -744 -300 c 6
 -734 -300 l 6
 -667 -300 -637 -313 -648 -360 c 6
EndSplineSet
EndChar

StartChar: uni0312
Encoding: 786 786 181
Width: 0
Flags: HMW
AnchorPoint: "top" -604 950 mark 0
LayerCount: 2
Fore
SplineSet
-404 1440 m 2
 -403 1440 l 2
 -386 1440 -381.041992188 1424.66601562 -407 1389 c 2
 -530 1220 l 257
 -528 1220 l 2
 -509.479492188 1220 -459 1188.59570312 -459 1130 c 2
 -459 1120 l 2
 -459 1053 -516 980 -593 980 c 2
 -603 980 l 2
 -680 980 -729 1033 -729 1100 c 2
 -729 1110 l 2
 -729 1157 -687.405273438 1211.75390625 -644 1248 c 2
 -547 1329 l 2
 -451.076171875 1409.1015625 -422 1440 -404 1440 c 2
EndSplineSet
EndChar

StartChar: sterling
Encoding: 163 163 182
Width: 1280
VWidth: 1920
Flags: HMW
LayerCount: 2
Fore
SplineSet
59 690 m 10
 60 695 l 18
 69 732 96 750 173 750 c 10
 713 750 l 18
 790 750 809 732 800 695 c 10
 799 690 l 18
 790 653 764 635 687 635 c 10
 147 635 l 18
 70 635 50 653 59 690 c 10
60 199 m 0
 197 291 288 345 327 514 c 0
 373 712 204 795 261 1043 c 0
 314 1273 499 1435 786 1435 c 0
 1080 1435 1166 1266 1145 1041 c 0
 1138 964 1095 923 1048 923 c 2
 1038 923 l 2
 991 923 969 964 975 1041 c 0
 986 1176 939 1295 764 1295 c 0
 587 1295 482 1223 445 1063 c 0
 401 872 539 740 487 514 c 0
 445 332 294 241 155 155 c 1
 876 155 l 2
 953 155 981 132 970 85 c 2
 966 70 l 2
 955 23 917 0 840 0 c 2
 40 0 l 2
 -37 0 -64 28 -53 75 c 6
 -50 85 l 6
 -40 129 -12 151 60 199 c 0
EndSplineSet
EndChar

StartChar: currency
Encoding: 164 164 183
Width: 1112
Flags: HMW
LayerCount: 2
Fore
SplineSet
1175 1183 m 10
 1178 1179 l 18
 1203 1146 1186 1106 1120 1052 c 10
 981 939 l 18
 975 934 971 934 967 939 c 10
 899 1027 l 18
 895 1032 897 1037 903 1042 c 10
 1042 1155 l 18
 1108 1209 1150 1216 1175 1183 c 10
220 476 m 10
 288 388 l 18
 292 383 290 378 284 373 c 10
 145 260 l 18
 79 206 37 199 12 232 c 10
 8 236 l 18
 -17 269 1 309 67 363 c 10
 206 476 l 18
 212 481 216 481 220 476 c 10
226 1179 m 10
 231 1183 l 18
 272 1216 310 1209 352 1155 c 10
 439 1042 l 18
 443 1037 441 1032 435 1027 c 10
 327 939 l 18
 321 934 317 934 313 939 c 10
 226 1052 l 18
 184 1106 185 1146 226 1179 c 10
752 388 m 10
 860 476 l 18
 866 481 870 481 874 476 c 10
 961 363 l 18
 1003 309 1001 269 960 236 c 10
 956 232 l 18
 915 199 877 206 835 260 c 10
 748 373 l 18
 744 378 746 383 752 388 c 10
107 710 m 0
 169 979 441 1200 710 1200 c 0
 979 1200 1149 979 1087 710 c 0
 1025 441 753 220 484 220 c 0
 215 220 45 441 107 710 c 0
267 710 m 0
 223 521 329 370 518 370 c 0
 707 370 883 521 927 710 c 0
 971 899 864 1050 675 1050 c 0
 486 1050 311 899 267 710 c 0
EndSplineSet
EndChar

StartChar: brokenbar
Encoding: 166 166 184
Width: 415
VWidth: 1920
Flags: HMW
LayerCount: 2
Fore
SplineSet
189 460 m 10
 199 460 l 18
 246 460 267 427 249 350 c 10
 103 -280 l 18
 85 -357 50 -390 3 -390 c 14
 -7 -390 l 22
 -54 -390 -75 -357 -57 -280 c 10
 89 350 l 18
 107 427 142 460 189 460 c 10
459 1630 m 10
 469 1630 l 18
 516 1630 537 1597 519 1520 c 10
 373 890 l 18
 355 813 320 780 273 780 c 10
 263 780 l 18
 216 780 195 813 213 890 c 10
 359 1520 l 18
 377 1597 412 1630 459 1630 c 10
EndSplineSet
EndChar

StartChar: section
Encoding: 167 167 185
Width: 1086
VWidth: 1920
Flags: HMW
LayerCount: 2
Fore
SplineSet
559 850 m 257
 414 850 295 736 268 618 c 256
 243 511 286 424 444 321 c 256
 653 185 771 67 734 -93 c 256
 692 -275 528 -400 301 -400 c 256
 67 -400 9 -267 21 -127 c 0
 27 -52 64 -18 111 -18 c 2
 120 -18 l 2
 167 -18 177 -54 180 -128 c 0
 183 -209 211 -265 334 -265 c 256
 462 -265 537 -210 560 -110 c 256
 578 -32 501 71 357 162 c 256
 110 318 49 406 85 563 c 256
 136 785 325 930 589 930 c 257
 559 850 l 257
526 185 m 257
 671 185 790 299 817 417 c 256
 842 524 799 611 641 714 c 256
 432 850 314 968 351 1128 c 256
 393 1310 557 1435 784 1435 c 256
 1018 1435 1076 1302 1064 1162 c 0
 1058 1087 1021 1053 974 1053 c 2
 965 1053 l 2
 918 1053 907 1089 904 1163 c 0
 901 1244 874 1300 751 1300 c 256
 623 1300 548 1245 525 1145 c 256
 507 1067 584 964 728 873 c 256
 975 717 1036 629 1000 472 c 256
 949 250 760 105 496 105 c 257
 526 185 l 257
EndSplineSet
EndChar

StartChar: copyright
Encoding: 169 169 186
Width: 1484
Flags: HMW
LayerCount: 2
Fore
SplineSet
1069 501 m 260
 1002 349 869 229 667 229 c 260
 435 229 347 393 400 621 c 262
 423 720 l 262
 476 948 638 1111 870 1111 c 260
 1066 1111 1137 1009 1140 888 c 260
 1141 848 1109 816 1081 816 c 262
 1075 816 l 262
 1041 816 1040 848 1037 888 c 260
 1032 969 963 1027 857 1027 c 260
 703 1027 582 888 545 726 c 262
 519 615 l 262
 482 453 526 313 692 313 c 260
 822 313 918 391 967 501 c 260
 982 535 1002 567 1036 567 c 262
 1042 567 l 262
 1076 567 1084 535 1069 501 c 260
1473 668 m 4
 1384 284 999 -28 615 -28 c 4
 231 -28 -10 284 79 668 c 4
 168 1052 552 1366 936 1366 c 4
 1320 1366 1562 1052 1473 668 c 4
1387 668 m 4
 1465 1006 1255 1280 917 1280 c 4
 579 1280 243 1006 165 668 c 4
 87 330 296 58 634 58 c 4
 972 58 1309 330 1387 668 c 4
EndSplineSet
EndChar

StartChar: registered
Encoding: 174 174 188
Width: 1484
Flags: HMW
LayerCount: 2
Fore
SplineSet
656 1030 m 261
 592 754 l 261
 832 754 l 262
 932 754 994 795 1011 867 c 262
 1023 917 l 262
 1040 989 996 1030 896 1030 c 262
 656 1030 l 261
917 1120 m 262
 1071 1120 1173 1049 1140 905 c 262
 1137 891 l 262
 1104 747 971 688 817 688 c 261
 825 724 l 261
 979 724 1081 677 1048 533 c 262
 1035 477 l 262
 1019 409 1026 370 1037 335 c 4
 1042 320 1042 308 1040 300 c 6
 1040 297 l 6
 1035 275 1010 262 982 262 c 6
 976 262 l 6
 945 262 923 280 916 303 c 4
 900 356 909 425 921 477 c 262
 938 551 l 262
 955 623 911 664 811 664 c 262
 571 664 l 261
 495 334 l 6
 484 288 458 262 424 262 c 6
 418 262 l 6
 384 262 370 288 381 334 c 6
 540 1024 l 6
 555 1088 595 1120 659 1120 c 6
 917 1120 l 262
1473 668 m 0
 1384 284 999 -28 615 -28 c 0
 231 -28 -10 284 79 668 c 0
 168 1052 552 1366 936 1366 c 0
 1320 1366 1562 1052 1473 668 c 0
1387 668 m 0
 1465 1006 1255 1280 917 1280 c 0
 579 1280 243 1006 165 668 c 0
 87 330 296 58 634 58 c 0
 972 58 1309 330 1387 668 c 0
EndSplineSet
EndChar

StartChar: dotlessi
Encoding: 305 305 279
Width: 445
VWidth: 1920
Flags: HMW
AnchorPoint: "top" 335 1050 basechar 0
LayerCount: 2
Fore
SplineSet
415 970 m 2
 209 80 l 2
 191 3 153 -30 106 -30 c 2
 96 -30 l 2
 49 -30 5 3 23 80 c 2
 229 970 l 2
 247 1047 287 1080 334 1080 c 2
 344 1080 l 2
 391 1080 433 1047 415 970 c 2
EndSplineSet
EndChar

StartChar: uni0237
Encoding: 567 567 291
Width: 434
VWidth: 1872
Flags: HMW
AnchorPoint: "top" 331 1050 basechar 0
LayerCount: 2
Fore
SplineSet
177 -59 m 2
 128 -271 -1 -371 -180 -371 c 0
 -359 -371 -386.611328125 -266.302734375 -370 -167 c 0
 -360.919921875 -112.717773438 -330 -85 -283 -85 c 2
 -277 -85 l 2
 -230 -85 -198.798828125 -113.934570312 -209 -167 c 0
 -218.725585938 -217.588867188 -210 -244 -165 -244 c 0
 -97 -244 -38 -185 -9 -60 c 2
 229 970 l 2
 243.798225394 1034.04274015 276 1080 333 1080 c 2
 339 1080 l 2
 396 1080 432.006720843 1043.52905776 415 970 c 2
 177 -59 l 2
EndSplineSet
EndChar

StartChar: kgreenlandic
Encoding: 312 312 298
Width: 970
VWidth: 1872
Flags: HMW
LayerCount: 2
Fore
SplineSet
340 1080 m 6
 350 1080 l 6
 397 1080 425 1047 407 970 c 6
 201 80 l 2
 183 3 140 -30 93 -30 c 2
 83 -30 l 2
 36 -30 -3 3 15 80 c 2
 221 970 l 6
 239 1047 293 1080 340 1080 c 6
203 501 m 257
 764 1000 l 2
 836 1061 879 1080 907 1080 c 2
 911 1080 l 2
 978 1080 1005.48351278 1010.65130922 929 950 c 2
 272 429 l 257
 203 501 l 257
460 650 m 257
 600 713 l 257
 818 137 l 2
 861 30 803 -30 756 -30 c 2
 746 -30 l 2
 698 -30 660 -7 636 60 c 2
 460 650 l 257
EndSplineSet
EndChar

StartChar: grave
Encoding: 96 96 339
Width: 623
VWidth: 0
Flags: HMW
LayerCount: 2
Fore
SplineSet
531 1084 m 2
 526 1084 l 2
 499 1084 477 1106 433 1157 c 2
 327 1280 l 6
 286.284581832 1327.24524938 319 1430 426 1430 c 6
 431 1430 l 2
 478 1430 506 1412 521 1359 c 2
 566 1194 l 2
 591 1130 558 1084 531 1084 c 2
EndSplineSet
EndChar

StartChar: longs
Encoding: 383 383 352
Width: 602
VWidth: 1872
Flags: HMW
LayerCount: 2
Fore
SplineSet
329 1188 m 262
 377 1395 517.362346409 1509.55022346 754 1438 c 4
 809.591919427 1421.19111858 818.714257813 1379.42851563 808 1358 c 6
 806 1354 l 6
 790.607617187 1323.21523437 775.766036374 1309.27801604 717 1330 c 4
 580.018255921 1378.30227933 534 1293 505 1168 c 262
 171 -280 l 6
 158.415369567 -334.558517566 120 -390 63 -390 c 6
 60 -390 l 6
 -7 -390 -22.5976647011 -334.552719119 -10 -280 c 6
 329 1188 l 262
EndSplineSet
EndChar

StartChar: uni0259
Encoding: 601 601 359
Width: 1110
VWidth: 1920
Flags: HMW
LayerCount: 2
Fore
SplineSet
178 791 m 0
 281 960 447 1085 678 1085 c 256
 947 1085 1095 912 1023 602 c 258
 987 447 l 258
 918 147 689 -35 412 -35 c 256
 145 -35 35 163 61 376 c 256
 65 407 70 443 73 457 c 0
 90 532 129 565 206 565 c 2
 890 565 l 257
 863 445 l 257
 253 445 l 257
 206 218 279 95 442 95 c 256
 599 95 742 207 790 417 c 258
 840 632 l 258
 891 852 807 955 640 955 c 256
 518 955 421 889 349 788 c 0
 302 721 260 682 213 682 c 2
 212 682 l 2
 160 682 135 720 178 791 c 0
EndSplineSet
EndChar

StartChar: logicalnot
Encoding: 172 172 373
Width: 1150
VWidth: 2048
Flags: HMW
LayerCount: 2
Fore
SplineSet
135 670 m 2
 136 675 l 2
 147 722 186 750 263 750 c 2
 933 750 l 6
 1040 750 1074 707 1049 600 c 2
 1001 395 l 2
 983 318 948 285 911 285 c 2
 901 285 l 2
 864 285 843 318 861 395 c 2
 907 595 l 1
 227 595 l 2
 150 595 124 623 135 670 c 2
EndSplineSet
EndChar

StartChar: acute
Encoding: 180 180 374
Width: 619
Flags: HMW
LayerCount: 2
Fore
SplineSet
350 1084 m 2
 323 1084 312 1130 367 1194 c 2
 488 1359 l 2
 527 1412 563 1430 610 1430 c 2
 615 1430 l 6
 712 1430 709 1327 646 1280 c 2
 482 1157 l 2
 414 1106 382 1084 355 1084 c 2
 350 1084 l 2
EndSplineSet
EndChar

StartChar: degree
Encoding: 176 176 376
Width: 880
VWidth: 2048
Flags: HMW
LayerCount: 2
Fore
SplineSet
230 1083 m 258
 238 1118 l 258
 282 1308 469 1435 646 1435 c 256
 823 1435 962 1308 918 1118 c 258
 910 1083 l 258
 866 893 669 765 492 765 c 256
 315 765 186 893 230 1083 c 258
383 1073 m 262
 355 953 422 885 519 885 c 256
 616 885 725 953 753 1073 c 262
 765 1128 l 262
 793 1248 716 1315 619 1315 c 256
 522 1315 423 1248 395 1128 c 262
 383 1073 l 262
EndSplineSet
EndChar

StartChar: plusminus
Encoding: 177 177 377
Width: 1168
Flags: HMW
LayerCount: 2
Fore
SplineSet
17 270 m 14
 21 285 l 22
 30 322 70 355 137 355 c 14
 947 355 l 22
 1014 355 1040 322 1031 285 c 14
 1027 270 l 22
 1018 233 978 200 911 200 c 14
 101 200 l 22
 34 200 8 233 17 270 c 14
194 1035 m 10
 197 1050 l 18
 206 1087 247 1120 314 1120 c 10
 1124 1120 l 18
 1191 1120 1216 1087 1207 1050 c 10
 1204 1035 l 18
 1195 998 1155 965 1088 965 c 10
 278 965 l 18
 211 965 185 998 194 1035 c 10
817 1570 m 10
 827 1570 l 18
 864 1570 889 1537 874 1470 c 10
 671 590 l 18
 656 523 615 490 578 490 c 10
 568 490 l 18
 531 490 506 523 521 590 c 10
 724 1470 l 18
 739 1537 780 1570 817 1570 c 10
EndSplineSet
EndChar

StartChar: ae
Encoding: 230 230 379
Width: 1775
VWidth: 1920
Flags: HMW
LayerCount: 2
Fore
SplineSet
207 270 m 0
 185 176 214 95 362 95 c 256
 526 95 709 222 750 398 c 257
 824 328 l 257
 777 125 549 -35 308 -35 c 256
 109 -35 -39 45 15 280 c 0
 52 441 182 575 551 615 c 256
 740 635 809 655 828 738 c 257
 841 618 l 257
 826 555 727 524 551 500 c 256
 320 468 232 380 207 270 c 0
718 258 m 265
 840 788 l 258
 863 888 794 955 659 955 c 256
 510 955 429 868 381 792 c 0
 337 721 313 683 266 683 c 2
 256 683 l 2
 209 683 176 718 212 792 c 0
 293 956 442 1085 678 1085 c 256
 938 1085 1012 971 957 733 c 258
 848 258 l 273
 718 258 l 265
1599 259 m 4
 1495 80 1320 -35 1099 -35 c 260
 830 -35 742 138 814 448 c 262
 850 603 l 262
 919 903 1088 1085 1365 1085 c 260
 1632 1085 1738 896 1717 674 c 260
 1715 652 1712 617 1706 593 c 4
 1689 518 1658 485 1521 485 c 6
 887 485 l 261
 915 605 l 261
 1525 605 l 261
 1572 832 1498 955 1335 955 c 260
 1178 955 1035 843 987 633 c 262
 938 418 l 262
 887 198 970 95 1137 95 c 260
 1229 95 1328 131 1430 262 c 4
 1481 327 1509 368 1556 368 c 6
 1566 368 l 6
 1613 368 1641 331 1599 259 c 4
EndSplineSet
EndChar

StartChar: paragraph
Encoding: 182 182 380
Width: 1070
VWidth: 1920
Flags: HMW
LayerCount: 2
Fore
SplineSet
1109 1275 m 1
 750 -280 l 2
 732 -357 702 -390 655 -390 c 2
 645 -390 l 2
 598 -390 582 -357 600 -280 c 2
 959 1275 l 1
 829 1275 l 1
 470 -280 l 2
 452 -357 422 -390 375 -390 c 2
 365 -390 l 2
 318 -390 302 -357 320 -280 c 2
 524 600 l 1
 514 600 l 2
 307 600 141 698 203 968 c 2
 218 1032 l 2
 280 1302 491 1400 698 1400 c 2
 1158 1400 l 2
 1235 1400 1265 1387 1254 1340 c 2
 1253 1335 l 2
 1242 1288 1206 1275 1129 1275 c 2
 1109 1275 l 1
EndSplineSet
EndChar

StartChar: guilsinglleft
Encoding: 8249 8249 381
Width: 630
Flags: HMW
LayerCount: 2
Fore
SplineSet
334 276 m 2
 212 399 l 2
 150 463 125 498 136 545 c 2
 143 575 l 2
 154 622 186 649 284 711 c 2
 460 824 l 2
 543 877 573 837 560 780 c 2
 558 770 l 2
 545 713 503 697 419 644 c 2
 277 555 l 257
 375 456 l 2
 430 402 465 367 452 310 c 2
 449 300 l 2
 436 243 388 222 334 276 c 2
EndSplineSet
EndChar

StartChar: guilsinglright
Encoding: 8250 8250 382
Width: 630
Flags: HMW
LayerCount: 2
Fore
SplineSet
310 824 m 2
 432 701 l 2
 494 637 519 602 508 555 c 2
 501 525 l 2
 490 478 458 451 360 389 c 2
 184 276 l 2
 101 223 71 263 84 320 c 2
 86 330 l 2
 99 387 141 403 225 456 c 2
 367 545 l 257
 269 644 l 2
 214 698 179 733 192 790 c 2
 195 800 l 2
 208 857 256 878 310 824 c 2
EndSplineSet
EndChar

StartChar: mu
Encoding: 181 181 385
Width: 1110
VWidth: 1920
Flags: HMW
LayerCount: 2
Fore
SplineSet
416 970 m 6
 127 -280 l 6
 109 -357 59 -390 12 -390 c 6
 2 -390 l 6
 -45 -390 -81 -357 -63 -280 c 6
 226 970 l 6
 244 1047 294 1080 341 1080 c 6
 351 1080 l 6
 398 1080 434 1047 416 970 c 6
775 -30 m 2
 760 -30 l 2
 713 -30 687 3 705 80 c 2
 732 193 l 257
 730 250 l 257
 896 970 l 2
 914 1047 964 1080 1011 1080 c 2
 1021 1080 l 2
 1068 1080 1104 1047 1086 970 c 2
 880 80 l 2
 862 3 822 -30 775 -30 c 2
802 347 m 257
 751 127 547 -35 340 -35 c 256
 133 -35 72 87 118 287 c 258
 276 970 l 2
 294 1047 294 1080 341 1080 c 2
 351 1080 l 2
 398 1080 434 1047 416 970 c 2
 258 287 l 258
 232 167 283 95 420 95 c 256
 587 95 723 217 771 427 c 257
 802 347 l 257
EndSplineSet
EndChar

StartChar: Eth
Encoding: 208 208 387
Width: 1336
VWidth: 1920
Flags: HMW
LayerCount: 2
Fore
SplineSet
50 705 m 14
 50 720 l 22
 50 757 83 790 150 790 c 14
 630 790 l 22
 697 790 730 757 730 720 c 14
 730 705 l 22
 730 668 697 635 630 635 c 14
 150 635 l 22
 83 635 50 668 50 705 c 14
EndSplineSet
Refer: 15 68 N 1 0 0 1 0 0 2
EndChar

StartChar: Dcroat
Encoding: 272 272 388
Width: 1336
VWidth: 1920
Flags: HMW
LayerCount: 2
Fore
SplineSet
50 705 m 14
 50 720 l 22
 50 757 83 790 150 790 c 14
 630 790 l 22
 697 790 730 757 730 720 c 14
 730 705 l 22
 730 668 697 635 630 635 c 14
 150 635 l 22
 83 635 50 668 50 705 c 14
EndSplineSet
Refer: 15 68 N 1 0 0 1 0 0 2
EndChar

StartChar: thorn
Encoding: 254 254 389
Width: 1110
VWidth: 1920
Flags: HMW
LayerCount: 2
Fore
SplineSet
185 1480 m 2
 195 1480 l 2
 242 1480 285 1447 285 1370 c 2
 285 -280 l 6
 285 -357 242 -390 195 -390 c 6
 185 -390 l 6
 138 -390 95 -357 95 -280 c 6
 95 1370 l 2
 95 1447 138 1480 185 1480 c 2
215 633 m 257
 215 923 422 1085 619 1085 c 256
 826 1085 1035 943 1035 603 c 258
 1035 447 l 258
 1035 107 826 -35 619 -35 c 256
 422 -35 215 127 215 417 c 257
 285 437 l 257
 285 227 422 105 579 105 c 256
 726 105 845 207 845 417 c 258
 845 633 l 258
 845 843 726 945 579 945 c 256
 422 945 285 823 285 613 c 257
 215 633 l 257
EndSplineSet
EndChar

StartChar: Thorn
Encoding: 222 222 390
Width: 1280
VWidth: 1920
Flags: HMW
LayerCount: 2
Fore
SplineSet
845 1150 m 2
 1132 1150 1298 1052 1236 782 c 2
 1221 718 l 2
 1159 448 948 350 661 350 c 2
 321 350 l 1
 258 80 l 6
 240 3 190 -30 143 -30 c 6
 133 -30 l 6
 86 -30 50 3 68 80 c 6
 355 1320 l 6
 373 1397 423 1430 470 1430 c 6
 480 1430 l 6
 527 1430 563 1397 545 1320 c 6
 505 1150 l 1
 845 1150 l 2
355 500 m 1
 695 500 l 2
 862 500 986 568 1014 688 c 2
 1042 812 l 2
 1070 932 978 1000 811 1000 c 2
 471 1000 l 1
 355 500 l 1
EndSplineSet
EndChar

StartChar: divide
Encoding: 247 247 391
Width: 1169
VWidth: 2048
Flags: HMW
LayerCount: 2
Fore
SplineSet
40 685 m 10
 40 700 l 18
 40 737 73 770 140 770 c 10
 1000 770 l 18
 1067 770 1100 737 1100 700 c 10
 1100 685 l 18
 1100 648 1067 615 1000 615 c 10
 140 615 l 18
 73 615 40 648 40 685 c 10
EndSplineSet
Refer: 1 46 N 1 0 0 1 306 990 2
Refer: 1 46 N 1 0 0 1 306 180 2
EndChar

StartChar: multiply
Encoding: 215 215 392
Width: 1060
VWidth: 1920
Flags: HMW
LayerCount: 2
Fore
SplineSet
855 360 m 10
 842 350 l 18
 801 317 766 338 730 385 c 10
 300 944 l 18
 258 998 253 1030 294 1064 c 10
 306 1075 l 18
 348 1107 377 1094 418 1039 c 10
 847 480 l 18
 883 433 896 393 855 360 c 10
139 350 m 10
 130 360 l 18
 102 392 135 433 193 480 c 10
 881 1039 l 18
 939 1086 984 1108 1009 1075 c 10
 1018 1064 l 18
 1043 1031 1012 991 954 944 c 10
 267 385 l 18
 209 338 167 318 139 350 c 10
EndSplineSet
EndChar

StartChar: Oslash
Encoding: 216 216 393
Width: 1440
VWidth: 1920
Flags: HMW
LayerCount: 2
Fore
SplineSet
1191 1473 m 6
 1199 1468 l 6
 1214 1460 1223 1439 1205 1407 c 6
 365 -47 l 6
 347 -79 324 -81 309 -73 c 6
 301 -68 l 6
 286 -60 277 -39 295 -7 c 6
 1135 1447 l 6
 1153 1479 1176 1481 1191 1473 c 6
EndSplineSet
Refer: 26 79 N 1 0 0 1 0 0 2
EndChar

StartChar: oslash
Encoding: 248 248 394
Width: 1075
VWidth: 1920
Flags: HMW
LayerCount: 2
Fore
SplineSet
926 1191 m 6
 934 1186 l 6
 949 1178 958 1157 940 1125 c 6
 230 -105 l 6
 212 -137 189 -139 174 -131 c 6
 166 -126 l 6
 151 -118 142 -97 160 -65 c 6
 870 1165 l 6
 888 1197 911 1199 926 1191 c 6
EndSplineSet
Refer: 52 111 N 1 0 0 1 0 0 2
EndChar

StartChar: germandbls
Encoding: 223 223 396
Width: 1210
VWidth: 1920
Flags: HMW
LayerCount: 2
Fore
SplineSet
294 1188 m 2
 334 1362 510 1487 740 1487 c 0
 1003 1487 1109 1372 1070 1205 c 0
 1025 1008 868 935 840 815 c 0
 799 636 1149 593 1082 302 c 0
 1033 90 850 -15 555 -35 c 0
 475 -40 459 -19 470 30 c 2
 472 40 l 2
 483 89 507 96 587 105 c 0
 767 125 854 179 881 297 c 0
 932 520 586 537 653 828 c 0
 686 970 842 1038 872 1168 c 0
 898 1279 863 1360 721 1360 c 4
 599 1360 506 1301 475 1168 c 2
 223 80 l 2
 205 3 160 -30 113 -30 c 2
 98 -30 l 2
 51 -30 20 3 38 80 c 2
 294 1188 l 2
EndSplineSet
EndChar

StartChar: eth
Encoding: 240 240 397
Width: 1104
VWidth: 1920
Flags: HMW
LayerCount: 2
Fore
SplineSet
300 1125 m 10
 299 1129 l 18
 289 1167 335 1196 406 1226 c 10
 867 1420 l 18
 928 1446 974 1453 986 1421 c 10
 988 1416 l 18
 1000 1383 952 1345 891 1319 c 10
 430 1124 l 18
 360 1094 310 1087 300 1125 c 10
625 935 m 256
 445 935 313 750 264 537 c 258
 255 497 l 258
 207 287 278 115 467 115 c 256
 644 115 799 302 838 472 c 258
 890 698 l 258
 956 984 676 1177 437 1320 c 0
 371 1359 366 1408 398 1441 c 2
 404 1448 l 2
 436 1482 465 1486 537 1450 c 0
 838 1298 1145 999 1058 623 c 258
 1038 537 l 258
 969 237 779 -35 422 -35 c 256
 130 -35 -8 179 56 457 c 258
 81 567 l 258
 144 841 342 1085 599 1085 c 256
 836 1085 987 856 942 662 c 257
 838 472 l 257
 868 602 l 258
 910 785 775 935 625 935 c 256
EndSplineSet
EndChar

StartChar: dcroat
Encoding: 273 273 398
Width: 1100
VWidth: 1920
Flags: HMW
LayerCount: 2
Fore
SplineSet
770 1255 m 14
 770 1270 l 22
 770 1307 803 1330 870 1330 c 14
 1240 1330 l 22
 1307 1330 1340 1307 1340 1270 c 14
 1340 1255 l 22
 1340 1218 1307 1195 1240 1195 c 14
 870 1195 l 22
 803 1195 770 1218 770 1255 c 14
EndSplineSet
Refer: 41 100 N 1 0 0 1 0 0 2
EndChar

StartChar: Hbar
Encoding: 294 294 399
Width: 1336
VWidth: 1920
Flags: HMW
LayerCount: 2
Fore
SplineSet
80 1110 m 14
 80 1125 l 22
 80 1162 113 1185 180 1185 c 14
 1420 1185 l 22
 1487 1185 1520 1162 1520 1125 c 14
 1520 1110 l 22
 1520 1073 1487 1050 1420 1050 c 14
 180 1050 l 22
 113 1050 80 1073 80 1110 c 14
EndSplineSet
Refer: 19 72 N 1 0 0 1 0 0 2
EndChar

StartChar: hbar
Encoding: 295 295 400
Width: 1075
VWidth: 1920
Flags: HMW
LayerCount: 2
Fore
SplineSet
110 1255 m 14
 110 1270 l 22
 110 1307 143 1330 210 1330 c 14
 580 1330 l 22
 647 1330 680 1307 680 1270 c 14
 680 1255 l 22
 680 1218 647 1195 580 1195 c 14
 210 1195 l 22
 143 1195 110 1218 110 1255 c 14
EndSplineSet
Refer: 45 104 N 1 0 0 1 0 0 2
EndChar

StartChar: Lslash
Encoding: 321 321 405
Width: 1031
VWidth: 1920
Flags: HMW
LayerCount: 2
Fore
SplineSet
667 1048 m 6
 672 1041 l 6
 682 1029 677 1003 636 982 c 6
 138 727 l 6
 114 715 78 708 68 720 c 6
 64 726 l 6
 54 738 54 763 80 777 c 6
 600 1042 l 6
 636 1060 657 1060 667 1048 c 6
EndSplineSet
Refer: 23 76 N 1 0 0 1 0 0 2
EndChar

StartChar: lslash
Encoding: 322 322 406
Width: 434
VWidth: 1920
Flags: HMW
LayerCount: 2
Fore
SplineSet
615 1038 m 6
 620 1031 l 6
 630 1019 624 993 583 972 c 6
 86 717 l 6
 62 705 26 698 16 710 c 6
 11 716 l 6
 1 728 2 753 28 767 c 6
 547 1032 l 6
 583 1050 605 1050 615 1038 c 6
EndSplineSet
Refer: 49 108 N 1 0 0 1 0 0 2
EndChar

StartChar: eng
Encoding: 331 331 408
Width: 1110
VWidth: 1920
Flags: HMW
LayerCount: 2
Fore
SplineSet
339 1080 m 2
 349 1080 l 2
 396 1080 427 1047 409 970 c 2
 378 837 l 257
 382 810 l 257
 213 80 l 2
 195 3 145 -30 98 -30 c 2
 88 -30 l 2
 41 -30 5 3 23 80 c 2
 229 970 l 2
 247 1047 292 1080 339 1080 c 2
842 -98 m 6
 794 -305 650 -368 444 -355 c 0
 367 -350 337 -337 348 -290 c 2
 350 -280 l 2
 361 -233 396 -223 473 -225 c 0
 543 -227 628 -205 657 -78 c 2
 851 763 l 2
 879 883 827 955 690 955 c 0
 523 955 387 833 339 623 c 1
 307 703 l 1
 358 923 563 1085 770 1085 c 0
 977 1085 1087 963 1041 763 c 2
 842 -98 l 6
EndSplineSet
EndChar

StartChar: Eng
Encoding: 330 330 409
Width: 1380
VWidth: 1920
Flags: HMW
LayerCount: 2
Fore
SplineSet
1350 1430 m 2
 1360 1430 l 2
 1407 1430 1432 1397 1419 1340 c 6
 1087 -98 l 2
 1039 -305 895 -368 689 -355 c 0
 612 -350 582 -337 593 -290 c 2
 595 -280 l 2
 606 -233 641 -223 718 -225 c 0
 788 -227 873 -205 902 -78 c 2
 947 116 l 1
 465 1150 l 1
 218 80 l 2
 203 13 160 -30 113 -30 c 2
 103 -30 l 2
 56 -30 33 13 48 80 c 2
 330 1300 l 2
 348 1377 411 1420 468 1420 c 2
 478 1420 l 2
 531 1420 573 1378 605 1310 c 2
 1034 409 l 1
 1249 1340 l 2
 1262 1397 1303 1430 1350 1430 c 2
EndSplineSet
EndChar

StartChar: oe
Encoding: 339 339 410
Width: 1835
VWidth: 1920
Flags: HMW
LayerCount: 2
Fore
SplineSet
73 448 m 258
 109 603 l 258
 176 893 408 1085 665 1085 c 256
 942 1085 1056 893 989 603 c 258
 953 448 l 258
 886 158 684 -35 407 -35 c 256
 150 -35 6 158 73 448 c 258
262 418 m 258
 218 228 270 95 457 95 c 256
 644 95 758 228 802 418 c 258
 851 633 l 258
 895 823 842 955 655 955 c 256
 468 955 355 823 311 633 c 258
 262 418 l 258
1659 259 m 0
 1555 80 1380 -35 1159 -35 c 256
 890 -35 802 138 874 448 c 258
 910 603 l 258
 979 903 1148 1085 1425 1085 c 256
 1692 1085 1798 896 1777 674 c 256
 1775 652 1772 617 1766 593 c 0
 1749 518 1718 485 1581 485 c 2
 947 485 l 257
 975 605 l 257
 1585 605 l 257
 1632 832 1558 955 1395 955 c 256
 1238 955 1095 843 1047 633 c 258
 998 418 l 258
 947 198 1030 95 1197 95 c 256
 1289 95 1388 131 1490 262 c 0
 1541 327 1569 368 1616 368 c 2
 1626 368 l 2
 1673 368 1701 331 1659 259 c 0
EndSplineSet
EndChar

StartChar: OE
Encoding: 338 338 411
Width: 2130
VWidth: 1920
Flags: HMW
LayerCount: 2
Fore
SplineSet
874 1400 m 258
 1399 1400 l 258
 1406 1400 1403 1397 1401 1390 c 262
 1082 10 l 262
 1080 3 1083 0 1076 0 c 258
 551 0 l 258
 237 0 29 231 118 617 c 258
 157 782 l 258
 246 1168 520 1400 874 1400 c 258
880 1250 m 258
 626 1250 428 1090 359 792 c 258
 316 607 l 258
 247 309 372 150 626 150 c 258
 931 150 l 257
 1185 1250 l 257
 880 1250 l 258
EndSplineSet
Refer: 16 69 N 1 0 0 1 850 0 2
EndChar

StartChar: Tbar
Encoding: 358 358 413
Width: 1131
VWidth: 1920
Flags: HMW
LayerCount: 2
Fore
SplineSet
210 690 m 14
 210 705 l 22
 210 742 243 765 310 765 c 14
 940 765 l 22
 1007 765 1040 742 1040 705 c 14
 1040 690 l 22
 1040 653 1007 630 940 630 c 14
 310 630 l 22
 243 630 210 653 210 690 c 14
EndSplineSet
Refer: 31 84 N 1 0 0 1 0 0 2
EndChar

StartChar: tbar
Encoding: 359 359 414
Width: 608
VWidth: 1920
Flags: HMW
LayerCount: 2
Fore
SplineSet
30 620 m 14
 30 635 l 22
 30 672 63 695 130 695 c 14
 530 695 l 22
 597 695 630 672 630 635 c 14
 630 620 l 22
 630 583 597 560 530 560 c 14
 130 560 l 22
 63 560 30 583 30 620 c 14
EndSplineSet
Refer: 57 116 N 1 0 0 1 0 0 2
EndChar

StartChar: florin
Encoding: 402 402 415
Width: 602
VWidth: 1920
Flags: HMW
LayerCount: 2
Fore
SplineSet
641 943 m 2
 207 943 l 2
 170 943 139 956 139 993 c 2
 139 1000 l 2
 139 1037 174 1050 211 1050 c 2
 645 1050 l 2
 682 1050 712 1037 712 1000 c 2
 712 993 l 2
 712 956 678 943 641 943 c 2
317 1135 m 2
 366 1347 480 1447 659 1447 c 0
 878 1447 879.414237013 1280.91054646 864 1233 c 0
 847.24602621 1180.92528239 820 1146 763 1146 c 2
 757 1146 l 2
 710 1146 669.376415088 1187.33963114 698 1233 c 0
 722.647606196 1272.31788397 704 1340 645 1340 c 0
 577 1340 527 1261 498 1136 c 2
 467 1010 l 2
 465 1003 462 1000 455 1000 c 2
 294 1000 l 2
 287 1000 284 1003 286 1010 c 2
 317 1135 l 2
225 -59 m 2
 176 -271 47 -371 -132 -371 c 0
 -351 -371 -332.610995277 -206.302370128 -319 -157 c 0
 -304.353897467 -103.948216989 -280 -70 -223 -70 c 2
 -219 -70 l 2
 -162 -70 -139.689453125 -105.810546875 -157 -157 c 0
 -170.725585938 -197.588867188 -176 -244 -117 -244 c 0
 -49 -244 10 -185 39 -60 c 2
 293 1038 l 2
 295 1045 298 1048 305 1048 c 2
 471 1048 l 2
 478 1048 481 1047 479 1040 c 2
 225 -59 l 2
EndSplineSet
EndChar

StartChar: uni0394
Encoding: 916 916 430
Width: 1280
VWidth: 1920
Flags: HMW
LayerCount: 2
Fore
SplineSet
80 0 m 2
 -27 0 -55 45 0 140 c 2
 682 1320 l 2
 717 1380 768 1430 825 1430 c 2
 865 1430 l 2
 922 1430 951 1379 958 1320 c 2
 1103 140 l 6
 1115 45 1067 0 960 0 c 6
 80 0 l 2
184 150 m 1
 904 150 l 1
 787 1226 l 1
 184 150 l 1
EndSplineSet
EndChar

StartChar: uni03A9
Encoding: 937 937 431
Width: 1490
VWidth: 1920
Flags: HMW
LayerCount: 2
Fore
SplineSet
829 201 m 0
 1028 288 1168 428 1233 708 c 2
 1253 793 l 2
 1322 1091 1188 1295 924 1295 c 0
 660 1295 432 1091 363 793 c 2
 343 708 l 2
 278 427 356 285 516 200 c 0
 585 164 618 142 606 91 c 2
 603 80 l 2
 592 33 552 0 475 0 c 2
 65 0 l 2
 -12 0 -39 28 -28 75 c 2
 -24 90 l 2
 -13 137 24 155 101 155 c 2
 376 155 l 1
 169 262 85 453 153 748 c 2
 161 783 l 2
 250 1169 574 1435 956 1435 c 0
 1338 1435 1540 1169 1451 783 c 2
 1443 748 l 2
 1375 453 1200 262 944 155 c 1
 1221 155 l 2
 1298 155 1327 137 1316 90 c 2
 1312 75 l 2
 1301 28 1262 0 1185 0 c 2
 775 0 l 2
 698 0 672 33 683 80 c 2
 686 91 l 2
 698 142 741 162 829 201 c 0
EndSplineSet
EndChar

StartChar: pi
Encoding: 960 960 432
Width: 1255
VWidth: 1920
Flags: HMW
LayerCount: 2
Fore
SplineSet
507 990 m 2
 296 80 l 2
 278 3 228 -30 181 -30 c 2
 171 -30 l 2
 124 -30 88 3 106 80 c 2
 317 990 l 2
 319 997 322 1000 329 1000 c 2
 499 1000 l 2
 506 1000 509 997 507 990 c 2
1151 70 m 6
 1149 60 l 6
 1138 13 1091 -3 1013 -8 c 4
 790 -21 680 44 728 252 c 262
 878 900 l 6
 896 977 948 1020 995 1020 c 6
 1000 1020 l 6
 1047 1020 1081 977 1063 900 c 6
 918 272 l 262
 889 145 964 125 1045 126 c 4
 1121 127 1162 117 1151 70 c 6
113 965 m 10
 116 980 l 18
 127 1027 165 1050 242 1050 c 10
 1202 1050 l 18
 1279 1050 1307 1027 1296 980 c 10
 1293 965 l 18
 1282 918 1244 895 1167 895 c 10
 207 895 l 18
 130 895 102 918 113 965 c 10
EndSplineSet
EndChar

StartChar: minute
Encoding: 8242 8242 433
Width: 470
VWidth: 1920
Flags: HMW
LayerCount: 2
Fore
SplineSet
166 910 m 6
 165 910 l 6
 138 910 143 936 164 980 c 6
 341 1340 l 6
 377 1412 420 1450 487 1450 c 6
 492 1450 l 6
 549 1450 574 1409 522 1340 c 6
 249 980 l 6
 221 943 193 910 166 910 c 6
EndSplineSet
EndChar

StartChar: Euro
Encoding: 8364 8364 435
Width: 1405
VWidth: 1920
Flags: HMW
LayerCount: 2
Fore
SplineSet
-22 555 m 10
 -21 560 l 18
 -12 597 26 620 93 620 c 10
 753 620 l 18
 820 620 848 597 839 560 c 10
 838 555 l 18
 829 518 791 495 724 495 c 10
 64 495 l 18
 -3 495 -31 518 -22 555 c 10
40 825 m 10
 42 830 l 18
 51 867 88 890 155 890 c 10
 815 890 l 18
 882 890 911 867 902 830 c 10
 900 825 l 18
 891 788 854 765 787 765 c 10
 127 765 l 18
 60 765 31 788 40 825 c 10
1174 278 m 256
 1069 95 904 -35 587 -35 c 256
 200 -35 55 238 143 618 c 258
 181 783 l 258
 269 1163 539 1435 926 1435 c 256
 1203 1435 1320 1345 1341 1213 c 256
 1351 1149 1300 1093 1253 1093 c 258
 1243 1093 l 258
 1186 1093 1189 1150 1157 1203 c 256
 1135 1239 1071 1295 904 1295 c 256
 647 1295 445 1063 383 793 c 258
 340 608 l 258
 278 338 352 105 629 105 c 256
 846 105 921 175 995 278 c 256
 1033 331 1063 388 1120 388 c 258
 1130 388 l 258
 1187 388 1206 334 1174 278 c 256
EndSplineSet
EndChar

StartChar: uni2116
Encoding: 8470 8470 436
Width: 2180
VWidth: 1920
Flags: HMW
LayerCount: 2
Fore
SplineSet
1380 70 m 14
 1380 85 l 22
 1380 122 1413 155 1480 155 c 14
 1950 155 l 22
 2017 155 2050 122 2050 85 c 14
 2050 70 l 22
 2050 33 2017 0 1950 0 c 14
 1480 0 l 22
 1413 0 1380 33 1380 70 c 14
EndSplineSet
Refer: 132 8304 N 1 0 0 1 1370 -295 2
Refer: 25 78 N 1 0 0 1 0 0 2
EndChar

StartChar: trademark
Encoding: 8482 8482 437
Width: 1722
VWidth: 1920
Flags: HMW
LayerCount: 2
Fore
SplineSet
339 1400 m 6
 881 1400 l 6
 935 1400 965 1388 957 1354 c 6
 952 1336 l 6
 944 1302 910 1290 856 1290 c 6
 652 1290 l 261
 501 636 l 6
 484 562 454 530 410 530 c 6
 408 530 l 6
 364 530 350 562 367 636 c 6
 518 1290 l 261
 314 1290 l 6
 260 1290 230 1302 238 1336 c 6
 243 1354 l 6
 251 1388 285 1400 339 1400 c 6
1119 1242 m 261
 979 636 l 6
 962 562 947 530 903 530 c 6
 895 530 l 6
 851 530 852 562 869 636 c 6
 1021 1294 l 6
 1038 1368 1081 1415 1135 1415 c 6
 1149 1415 l 6
 1223 1415 1226 1368 1237 1304 c 6
 1321 811 l 261
 1643 1314 l 6
 1679 1370 1723 1415 1767 1415 c 6
 1783 1415 l 6
 1817 1415 1845 1398 1821 1294 c 6
 1669 636 l 6
 1652 562 1632 530 1588 530 c 6
 1578 530 l 6
 1534 530 1530 562 1547 636 c 6
 1672 1180 l 261
 1310 616 l 6
 1280 569 1278 560 1254 560 c 6
 1248 560 l 6
 1224 560 1226 568 1218 616 c 6
 1119 1242 l 261
EndSplineSet
EndChar

StartChar: partialdiff
Encoding: 8706 8706 438
Width: 1104
VWidth: 1920
Flags: HMW
LayerCount: 2
Fore
SplineSet
589 735 m 256
 409 735 283 620 241 437 c 258
 232 397 l 258
 190 217 278 115 467 115 c 256
 644 115 799 302 838 472 c 258
 890 698 l 258
 956 984 670 1186 428 1325 c 4
 384 1350 368 1398 391 1429 c 2
 402 1444 l 2
 426 1475 481 1481 528 1456 c 4
 851 1285 1145 999 1058 623 c 258
 1038 537 l 258
 969 237 779 -35 422 -35 c 256
 130 -35 -25 109 32 357 c 258
 58 467 l 258
 114 711 306 885 563 885 c 256
 800 885 964 756 919 562 c 257
 815 372 l 257
 845 502 l 258
 887 685 739 735 589 735 c 256
EndSplineSet
EndChar

StartChar: summation
Encoding: 8721 8721 439
Width: 1170
VWidth: 1920
Flags: HMW
LayerCount: 2
Fore
SplineSet
803 409 m 6
 204 -210 l 1
 840 -210 l 2
 937 -210 974 -233 963 -280 c 2
 961 -290 l 2
 950 -337 902 -360 805 -360 c 2
 25 -360 l 2
 -82 -360 -44 -264 7 -210 c 2
 692 520 l 1
 323 1290 l 2
 300 1338 344 1400 431 1400 c 2
 1211 1400 l 2
 1318 1400 1346 1377 1335 1330 c 2
 1333 1320 l 2
 1322 1273 1284 1250 1177 1250 c 2
 541 1250 l 1
 855 631 l 6
 893 555 877 485 803 409 c 6
EndSplineSet
EndChar

StartChar: minus
Encoding: 8722 8722 440
Width: 1170
Flags: HMW
LayerCount: 2
Fore
SplineSet
100 495 m 14
 100 510 l 22
 100 547 133 580 200 580 c 14
 970 580 l 22
 1037 580 1070 547 1070 510 c 14
 1070 495 l 22
 1070 458 1037 425 970 425 c 14
 200 425 l 22
 133 425 100 458 100 495 c 14
EndSplineSet
EndChar

StartChar: integral
Encoding: 8747 8747 441
Width: 445
VWidth: 1920
Flags: HMW
LayerCount: 2
Fore
SplineSet
175 -98 m 2
 127 -305 -16 -368 -222 -355 c 0
 -299 -350 -329 -337 -318 -290 c 2
 -316 -280 l 2
 -305 -233 -270 -223 -193 -225 c 0
 -123 -227 -39 -205 -10 -78 c 2
 282 1188 l 2
 330 1395 458 1453 674 1445 c 0
 752 1442 782 1427 771 1380 c 2
 768 1370 l 2
 757 1323 724 1321 640 1316 c 0
 563 1311 497 1293 468 1168 c 2
 175 -98 l 2
EndSplineSet
EndChar

StartChar: radical
Encoding: 8730 8730 443
Width: 1055
VWidth: 1920
Flags: HMW
LayerCount: 2
Fore
SplineSet
352 1050 m 2
 409 1050 438 1010 444 960 c 2
 525 328 l 1
 1017 1490 l 2
 1061 1593 1107 1630 1154 1630 c 6
 1159 1630 l 6
 1206 1630 1237 1592 1191 1490 c 2
 503 -43 l 2
 482 -89 440 -85 433 -43 c 2
 267 900 l 1
 196 900 l 2
 119 900 91 923 102 970 c 2
 104 980 l 2
 115 1027 153 1050 230 1050 c 2
 352 1050 l 2
EndSplineSet
EndChar

StartChar: infinity
Encoding: 8734 8734 444
Width: 1450
Flags: HMW
LayerCount: 2
Fore
SplineSet
331 301 m 0
 131 301 53 471 98 665 c 0
 143 859 299 1025 499 1025 c 0
 653 1025 729 915 756 755 c 1
 857 915 983 1025 1137 1025 c 0
 1337 1025 1415 859 1370 665 c 0
 1325 471 1169 301 969 301 c 0
 815 301 721 411 714 571 c 1
 611 411 485 301 331 301 c 0
390 457 m 0
 478 457 577 541 660 665 c 1
 638 787 573 871 485 871 c 0
 385 871 296 795 266 665 c 0
 236 537 290 457 390 457 c 0
984 457 m 0
 1084 457 1172 537 1202 665 c 0
 1232 795 1179 871 1079 871 c 0
 991 871 888 787 810 665 c 1
 812 543 896 457 984 457 c 0
EndSplineSet
EndChar

StartChar: product
Encoding: 8719 8719 445
Width: 1380
VWidth: 1920
Flags: HMW
LayerCount: 2
Fore
SplineSet
1303 1400 m 6
 1400 1400 1423 1357 1408 1290 c 6
 1128 80 l 6
 1113 13 1070 -30 1013 -30 c 6
 1003 -30 l 6
 946 -30 923 13 938 80 c 6
 1209 1250 l 261
 509 1250 l 261
 238 80 l 6
 223 13 180 -30 123 -30 c 6
 113 -30 l 6
 56 -30 33 13 48 80 c 6
 328 1290 l 22
 343 1357 386 1400 483 1400 c 6
 1303 1400 l 6
EndSplineSet
EndChar

StartChar: uni2219
Encoding: 8729 8729 446
Width: 540
Flags: HMW
LayerCount: 2
Fore
SplineSet
161 675 m 4
 161 763 222 825 310 825 c 4
 398 825 459 763 459 675 c 4
 459 587 403 525 315 525 c 4
 227 525 161 587 161 675 c 4
EndSplineSet
EndChar

StartChar: approxequal
Encoding: 8776 8776 447
Width: 1180
VWidth: 1920
Flags: HMW
LayerCount: 2
Fore
SplineSet
445 664 m 256
 383 664 350 637 330 607 c 0
 298 561 271 538 234 538 c 2
 224 538 l 2
 177 538 152 561 187 637 c 0
 227 724 332 829 473 829 c 256
 652 829 680 707 812 707 c 256
 874 707 905 731 927 763 c 0
 958 806 981 833 1028 833 c 2
 1037 833 l 2
 1084 833 1116 818 1084 753 c 0
 1027 635 924 542 784 542 c 256
 605 542 597 664 445 664 c 256
360 294 m 256
 298 294 265 267 245 237 c 0
 213 191 186 168 149 168 c 2
 139 168 l 2
 92 168 67 191 102 267 c 0
 142 354 247 459 388 459 c 256
 567 459 595 337 727 337 c 256
 789 337 820 361 842 393 c 0
 873 436 896 463 943 463 c 2
 952 463 l 2
 999 463 1030 448 998 383 c 0
 941 265 839 172 699 172 c 256
 520 172 512 294 360 294 c 256
EndSplineSet
EndChar

StartChar: notequal
Encoding: 8800 8800 448
Width: 1180
VWidth: 1920
Flags: HMW
LayerCount: 2
Fore
SplineSet
1038 950 m 6
 1040 948 l 6
 1055 933 1045 899 1020 874 c 6
 216 70 l 2
 191 45 162 30 142 50 c 2
 140 52 l 2
 120 72 135 101 160 126 c 2
 964 930 l 6
 989 955 1023 965 1038 950 c 6
EndSplineSet
Refer: 83 61 N 1 0 0 1 0 0 2
EndChar

StartChar: lessequal
Encoding: 8804 8804 449
Width: 1010
VWidth: 1920
Flags: HMW
LayerCount: 2
Fore
SplineSet
-40 70 m 14
 -40 85 l 22
 -40 122 -7 155 60 155 c 14
 710 155 l 22
 777 155 810 122 810 85 c 14
 810 70 l 22
 810 33 777 0 710 0 c 14
 60 0 l 22
 -7 0 -40 33 -40 70 c 14
EndSplineSet
Refer: 84 60 N 1 0 0 1 0 150 2
EndChar

StartChar: greaterequal
Encoding: 8805 8805 450
Width: 1010
VWidth: 1920
Flags: HMW
LayerCount: 2
Fore
SplineSet
-40 70 m 14
 -40 85 l 22
 -40 122 -7 155 60 155 c 14
 710 155 l 22
 777 155 810 122 810 85 c 14
 810 70 l 22
 810 33 777 0 710 0 c 14
 60 0 l 22
 -7 0 -40 33 -40 70 c 14
EndSplineSet
Refer: 85 62 N 1 0 0 1 0 150 2
EndChar

StartChar: lozenge
Encoding: 9674 9674 451
Width: 950
Flags: HMW
LayerCount: 2
Fore
SplineSet
333 140 m 2
 160 602 l 6
 132 676 149 748 211 822 c 6
 597 1282 l 2
 654 1350 705 1352 729 1282 c 2
 879 822 l 6
 903 751 884 673 828 602 c 6
 465 140 l 2
 409 70 358 72 333 140 c 2
431 304 m 1
 757 712 l 1
 620 1120 l 1
 281 712 l 1
 431 304 l 1
EndSplineSet
EndChar

StartChar: uniF8EA
Encoding: 63722 63722 452
Width: 1088
VWidth: 1920
Flags: HMW
LayerCount: 2
Fore
SplineSet
312 1400 m 6
 637 1400 l 6
 669 1400 688 1392 683 1372 c 6
 680 1362 l 6
 675 1342 654 1334 622 1334 c 6
 500 1334 l 261
 409 942 l 6
 399 898 381 878 355 878 c 6
 354 878 l 6
 328 878 318 898 328 942 c 6
 419 1334 l 261
 297 1334 l 6
 265 1334 246 1342 251 1362 c 6
 254 1372 l 6
 259 1392 280 1400 312 1400 c 6
780 1305 m 261
 696 942 l 6
 686 898 677 878 651 878 c 6
 646 878 l 6
 620 878 620 898 630 942 c 6
 721 1336 l 6
 731 1380 757 1409 789 1409 c 6
 798 1409 l 6
 842 1409 844 1381 851 1342 c 6
 902 1047 l 261
 1094 1348 l 6
 1116 1381 1142 1409 1168 1409 c 6
 1178 1409 l 6
 1198 1409 1215 1398 1201 1336 c 6
 1110 942 l 6
 1100 898 1088 878 1062 878 c 6
 1056 878 l 6
 1030 878 1026 898 1036 942 c 6
 1112 1268 l 261
 895 930 l 6
 877 902 875 896 861 896 c 6
 858 896 l 6
 844 896 844 901 840 930 c 6
 780 1305 l 261
EndSplineSet
EndChar

StartChar: uniF8E8
Encoding: 63720 63720 453
Width: 986
Flags: HMW
LayerCount: 2
Fore
SplineSet
536 1234 m 257
 498 1068 l 257
 642 1068 l 258
 702 1068 738 1093 748 1136 c 258
 755 1166 l 258
 765 1209 740 1234 680 1234 c 258
 536 1234 l 257
692 1288 m 258
 784 1288 846 1245 826 1159 c 258
 823 1150 l 258
 803 1064 724 1028 632 1028 c 257
 637 1050 l 257
 729 1050 791 1021 771 935 c 258
 763 902 l 258
 754 861 759 838 765 817 c 0
 768 808 767 801 766 796 c 2
 765 794 l 2
 762 781 748 773 731 773 c 2
 727 773 l 2
 708 773 695 783 691 797 c 0
 681 829 687 871 694 902 c 258
 704 946 l 258
 714 989 689 1014 629 1014 c 258
 485 1014 l 257
 439 816 l 2
 433 788 416 773 396 773 c 2
 393 773 l 2
 373 773 364 788 370 816 c 2
 466 1230 l 2
 475 1268 499 1288 537 1288 c 2
 692 1288 l 258
1026 1016 m 0
 973 786 740 599 510 599 c 0
 280 599 137 786 190 1016 c 0
 243 1246 473 1435 703 1435 c 0
 933 1435 1079 1246 1026 1016 c 0
975 1016 m 0
 1022 1219 895 1384 692 1384 c 0
 489 1384 288 1219 241 1016 c 0
 194 813 319 650 522 650 c 0
 725 650 928 813 975 1016 c 0
EndSplineSet
EndChar

StartChar: uniF8E9
Encoding: 63721 63721 454
Width: 986
Flags: HMW
LayerCount: 2
Fore
SplineSet
783 916 m 260
 743 825 663 753 542 753 c 260
 403 753 350 851 382 988 c 262
 396 1047 l 262
 428 1184 525 1282 664 1282 c 260
 782 1282 825 1221 826 1148 c 260
 826 1124 808 1105 791 1105 c 262
 787 1105 l 262
 766 1105 765 1124 764 1148 c 260
 761 1197 720 1232 656 1232 c 260
 563 1232 491 1148 469 1051 c 262
 453 984 l 262
 431 887 457 803 557 803 c 260
 635 803 692 850 721 916 c 260
 730 937 743 956 764 956 c 262
 767 956 l 262
 788 956 792 937 783 916 c 260
1026 1016 m 4
 973 786 740 599 510 599 c 4
 280 599 137 786 190 1016 c 4
 243 1246 473 1435 703 1435 c 4
 933 1435 1079 1246 1026 1016 c 4
975 1016 m 4
 1022 1219 895 1384 692 1384 c 4
 489 1384 288 1219 241 1016 c 4
 194 813 319 650 522 650 c 4
 725 650 928 813 975 1016 c 4
EndSplineSet
EndChar

StartChar: uni1E9E
Encoding: 7838 7838 457
Width: 1380
VWidth: 1920
Flags: HMW
LayerCount: 2
Fore
SplineSet
272 1005 m 2
 338 1289 608 1434 898 1434 c 0
 1129 1434 1242 1360 1302 1271 c 0
 1342 1213 1342 1142 1252 1046 c 2
 989 765 l 1
 1097 716 1322 609 1262 348 c 0
 1210 124 1021 -35 723 -35 c 0
 634 -35 555 -21 493 14 c 0
 452 37 437 58 444 90 c 2
 445 95 l 2
 455 138 513 158 586 130 c 0
 622 116 673 107 727 107 c 0
 907 107 1040 209 1072 346 c 0
 1104 483 1026 559 903 612 c 0
 795 659 809 742 900 847 c 2
 1169 1156 l 1
 1146 1198 1070 1292 862 1292 c 0
 693 1292 506 1218 452 985 c 2
 243 80 l 2
 225 3 175 -30 128 -30 c 2
 123 -30 l 2
 76 -30 40 3 58 80 c 2
 272 1005 l 2
EndSplineSet
EndChar
